<svg xmlns="http://www.w3.org/2000/svg" xmlns:xlink="http://www.w3.org/1999/xlink" width="150" zoomAndPan="magnify" viewBox="0 0 112.5 38.999999" height="52" preserveAspectRatio="xMidYMid meet" version="1.0"><defs><g/><clipPath id="9ff70d46dd"><path d="M 81.460938 3.59375 L 112.003906 3.59375 L 112.003906 35.804688 L 81.460938 35.804688 Z M 81.460938 3.59375 " clip-rule="nonzero"/></clipPath><clipPath id="b11fbc0c9e"><path d="M 96.730469 3.59375 C 88.296875 3.59375 81.460938 10.789062 81.460938 19.664062 C 81.460938 28.539062 88.296875 35.730469 96.730469 35.730469 C 105.164062 35.730469 112.003906 28.539062 112.003906 19.664062 C 112.003906 10.789062 105.164062 3.59375 96.730469 3.59375 Z M 96.730469 3.59375 " clip-rule="nonzero"/></clipPath></defs><g clip-path="url(#9ff70d46dd)"><g clip-path="url(#b11fbc0c9e)"><path fill="#aca8a4" d="M 81.460938 3.59375 L 112.003906 3.59375 L 112.003906 35.6875 L 81.460938 35.6875 Z M 81.460938 3.59375 " fill-opacity="1" fill-rule="nonzero"/></g></g><g fill="#000000" fill-opacity="1"><g transform="translate(4.447332, 27.641094)"><g><path d="M 7.40625 -17.15625 C 6.8125 -17.125 6.375 -17.054688 6.09375 -16.953125 C 5.820312 -16.859375 5.632812 -16.664062 5.53125 -16.375 C 5.4375 -16.09375 5.390625 -15.640625 5.390625 -15.015625 L 5.390625 -2.640625 C 5.390625 -2.015625 5.4375 -1.554688 5.53125 -1.265625 C 5.632812 -0.984375 5.820312 -0.796875 6.09375 -0.703125 C 6.375 -0.617188 6.8125 -0.578125 7.40625 -0.578125 L 9.234375 -0.578125 C 10.253906 -0.578125 11.035156 -0.722656 11.578125 -1.015625 C 12.117188 -1.304688 12.515625 -1.773438 12.765625 -2.421875 C 13.015625 -3.066406 13.195312 -4.003906 13.3125 -5.234375 L 13.890625 -5.234375 C 13.835938 -4.722656 13.8125 -4.039062 13.8125 -3.1875 C 13.8125 -2.238281 13.867188 -1.175781 13.984375 0 C 12.859375 -0.0507812 10.957031 -0.078125 8.28125 -0.078125 C 5.082031 -0.078125 2.671875 -0.0507812 1.046875 0 L 1.046875 -0.5 C 1.640625 -0.53125 2.070312 -0.59375 2.34375 -0.6875 C 2.625 -0.789062 2.8125 -0.984375 2.90625 -1.265625 C 3.007812 -1.554688 3.0625 -2.015625 3.0625 -2.640625 L 3.0625 -15.015625 C 3.0625 -15.640625 3.007812 -16.09375 2.90625 -16.375 C 2.8125 -16.664062 2.625 -16.859375 2.34375 -16.953125 C 2.070312 -17.054688 1.640625 -17.125 1.046875 -17.15625 L 1.046875 -17.65625 C 1.742188 -17.601562 2.804688 -17.578125 4.234375 -17.578125 C 5.566406 -17.578125 6.625 -17.601562 7.40625 -17.65625 Z M 7.40625 -17.15625 "/></g></g></g><g fill="#000000" fill-opacity="1"><g transform="translate(19.106794, 27.641094)"><g><path d="M 7.40625 -17.15625 C 6.8125 -17.125 6.375 -17.054688 6.09375 -16.953125 C 5.820312 -16.859375 5.632812 -16.664062 5.53125 -16.375 C 5.4375 -16.09375 5.390625 -15.640625 5.390625 -15.015625 L 5.390625 -2.640625 C 5.390625 -2.015625 5.4375 -1.554688 5.53125 -1.265625 C 5.632812 -0.984375 5.820312 -0.789062 6.09375 -0.6875 C 6.375 -0.59375 6.8125 -0.53125 7.40625 -0.5 L 7.40625 0 C 6.644531 -0.0507812 5.585938 -0.078125 4.234375 -0.078125 C 2.804688 -0.078125 1.742188 -0.0507812 1.046875 0 L 1.046875 -0.5 C 1.640625 -0.53125 2.070312 -0.59375 2.34375 -0.6875 C 2.625 -0.789062 2.8125 -0.984375 2.90625 -1.265625 C 3.007812 -1.554688 3.0625 -2.015625 3.0625 -2.640625 L 3.0625 -15.015625 C 3.0625 -15.640625 3.007812 -16.09375 2.90625 -16.375 C 2.8125 -16.664062 2.625 -16.859375 2.34375 -16.953125 C 2.070312 -17.054688 1.640625 -17.125 1.046875 -17.15625 L 1.046875 -17.65625 C 1.742188 -17.601562 2.804688 -17.578125 4.234375 -17.578125 C 5.566406 -17.578125 6.625 -17.601562 7.40625 -17.65625 Z M 7.40625 -17.15625 "/></g></g></g><g fill="#000000" fill-opacity="1"><g transform="translate(27.558422, 27.641094)"><g><path d="M 13.484375 -17.65625 C 13.367188 -16.476562 13.3125 -15.414062 13.3125 -14.46875 C 13.3125 -13.632812 13.335938 -12.953125 13.390625 -12.421875 L 12.8125 -12.421875 C 12.6875 -13.703125 12.519531 -14.648438 12.3125 -15.265625 C 12.113281 -15.890625 11.765625 -16.347656 11.265625 -16.640625 C 10.773438 -16.929688 10.015625 -17.078125 8.984375 -17.078125 L 7.40625 -17.078125 C 6.8125 -17.078125 6.375 -17.03125 6.09375 -16.9375 C 5.820312 -16.851562 5.632812 -16.664062 5.53125 -16.375 C 5.4375 -16.09375 5.390625 -15.640625 5.390625 -15.015625 L 5.390625 -8.875 L 7.203125 -8.875 C 7.785156 -8.875 8.234375 -9.007812 8.546875 -9.28125 C 8.867188 -9.5625 9.082031 -9.890625 9.1875 -10.265625 C 9.289062 -10.640625 9.378906 -11.109375 9.453125 -11.671875 L 9.53125 -12.171875 L 10.09375 -12.171875 C 10.050781 -11.472656 10.03125 -10.691406 10.03125 -9.828125 L 10.03125 -8.625 C 10.03125 -7.78125 10.078125 -6.601562 10.171875 -5.09375 L 9.59375 -5.09375 C 9.582031 -5.207031 9.535156 -5.609375 9.453125 -6.296875 C 9.367188 -6.984375 9.140625 -7.5 8.765625 -7.84375 C 8.390625 -8.195312 7.867188 -8.375 7.203125 -8.375 L 5.390625 -8.375 L 5.390625 -2.640625 C 5.390625 -2.015625 5.453125 -1.554688 5.578125 -1.265625 C 5.710938 -0.984375 5.945312 -0.789062 6.28125 -0.6875 C 6.613281 -0.59375 7.15625 -0.53125 7.90625 -0.5 L 7.90625 0 C 7.039062 -0.0507812 5.816406 -0.078125 4.234375 -0.078125 C 2.804688 -0.078125 1.742188 -0.0507812 1.046875 0 L 1.046875 -0.5 C 1.640625 -0.53125 2.070312 -0.59375 2.34375 -0.6875 C 2.625 -0.789062 2.8125 -0.984375 2.90625 -1.265625 C 3.007812 -1.554688 3.0625 -2.015625 3.0625 -2.640625 L 3.0625 -15.015625 C 3.0625 -15.640625 3.007812 -16.09375 2.90625 -16.375 C 2.8125 -16.664062 2.625 -16.859375 2.34375 -16.953125 C 2.070312 -17.054688 1.640625 -17.125 1.046875 -17.15625 L 1.046875 -17.65625 C 2.671875 -17.601562 5.082031 -17.578125 8.28125 -17.578125 C 10.71875 -17.578125 12.453125 -17.601562 13.484375 -17.65625 Z M 13.484375 -17.65625 "/></g></g></g><g fill="#000000" fill-opacity="1"><g transform="translate(41.744195, 27.641094)"><g><path d="M 13.8125 -3.1875 C 13.8125 -2.238281 13.867188 -1.175781 13.984375 0 C 12.859375 -0.0507812 10.957031 -0.078125 8.28125 -0.078125 C 5.082031 -0.078125 2.671875 -0.0507812 1.046875 0 L 1.046875 -0.5 C 1.640625 -0.53125 2.070312 -0.59375 2.34375 -0.6875 C 2.625 -0.789062 2.8125 -0.984375 2.90625 -1.265625 C 3.007812 -1.554688 3.0625 -2.015625 3.0625 -2.640625 L 3.0625 -15.015625 C 3.0625 -15.640625 3.007812 -16.09375 2.90625 -16.375 C 2.8125 -16.664062 2.625 -16.859375 2.34375 -16.953125 C 2.070312 -17.054688 1.640625 -17.125 1.046875 -17.15625 L 1.046875 -17.65625 C 2.671875 -17.601562 5.082031 -17.578125 8.28125 -17.578125 C 10.71875 -17.578125 12.453125 -17.601562 13.484375 -17.65625 C 13.367188 -16.5625 13.3125 -15.582031 13.3125 -14.71875 C 13.3125 -14.0625 13.335938 -13.546875 13.390625 -13.171875 L 12.8125 -13.171875 C 12.695312 -14.242188 12.546875 -15.039062 12.359375 -15.5625 C 12.179688 -16.09375 11.875 -16.476562 11.4375 -16.71875 C 11.007812 -16.957031 10.351562 -17.078125 9.46875 -17.078125 L 7.40625 -17.078125 C 6.8125 -17.078125 6.375 -17.03125 6.09375 -16.9375 C 5.820312 -16.851562 5.632812 -16.664062 5.53125 -16.375 C 5.4375 -16.09375 5.390625 -15.640625 5.390625 -15.015625 L 5.390625 -9.125 L 7.03125 -9.125 C 7.613281 -9.125 8.0625 -9.257812 8.375 -9.53125 C 8.695312 -9.8125 8.910156 -10.140625 9.015625 -10.515625 C 9.117188 -10.890625 9.207031 -11.359375 9.28125 -11.921875 L 9.34375 -12.421875 L 9.921875 -12.421875 C 9.867188 -11.722656 9.84375 -10.941406 9.84375 -10.078125 L 9.84375 -8.875 C 9.84375 -8.03125 9.894531 -6.851562 10 -5.34375 L 9.421875 -5.34375 C 9.410156 -5.457031 9.363281 -5.859375 9.28125 -6.546875 C 9.195312 -7.234375 8.96875 -7.75 8.59375 -8.09375 C 8.21875 -8.445312 7.695312 -8.625 7.03125 -8.625 L 5.390625 -8.625 L 5.390625 -2.640625 C 5.390625 -2.015625 5.4375 -1.554688 5.53125 -1.265625 C 5.632812 -0.984375 5.820312 -0.796875 6.09375 -0.703125 C 6.375 -0.617188 6.8125 -0.578125 7.40625 -0.578125 L 9.234375 -0.578125 C 10.253906 -0.578125 11.035156 -0.710938 11.578125 -0.984375 C 12.117188 -1.253906 12.515625 -1.691406 12.765625 -2.296875 C 13.015625 -2.910156 13.195312 -3.804688 13.3125 -4.984375 L 13.890625 -4.984375 C 13.835938 -4.535156 13.8125 -3.9375 13.8125 -3.1875 Z M 13.8125 -3.1875 "/></g></g></g><g fill="#000000" fill-opacity="1"><g transform="translate(56.927211, 27.641094)"><g><path d="M 7.40625 -17.15625 C 6.8125 -17.125 6.375 -17.054688 6.09375 -16.953125 C 5.820312 -16.859375 5.632812 -16.664062 5.53125 -16.375 C 5.4375 -16.09375 5.390625 -15.640625 5.390625 -15.015625 L 5.390625 -2.640625 C 5.390625 -2.015625 5.4375 -1.554688 5.53125 -1.265625 C 5.632812 -0.984375 5.820312 -0.796875 6.09375 -0.703125 C 6.375 -0.617188 6.8125 -0.578125 7.40625 -0.578125 L 9.234375 -0.578125 C 10.253906 -0.578125 11.035156 -0.722656 11.578125 -1.015625 C 12.117188 -1.304688 12.515625 -1.773438 12.765625 -2.421875 C 13.015625 -3.066406 13.195312 -4.003906 13.3125 -5.234375 L 13.890625 -5.234375 C 13.835938 -4.722656 13.8125 -4.039062 13.8125 -3.1875 C 13.8125 -2.238281 13.867188 -1.175781 13.984375 0 C 12.859375 -0.0507812 10.957031 -0.078125 8.28125 -0.078125 C 5.082031 -0.078125 2.671875 -0.0507812 1.046875 0 L 1.046875 -0.5 C 1.640625 -0.53125 2.070312 -0.59375 2.34375 -0.6875 C 2.625 -0.789062 2.8125 -0.984375 2.90625 -1.265625 C 3.007812 -1.554688 3.0625 -2.015625 3.0625 -2.640625 L 3.0625 -15.015625 C 3.0625 -15.640625 3.007812 -16.09375 2.90625 -16.375 C 2.8125 -16.664062 2.625 -16.859375 2.34375 -16.953125 C 2.070312 -17.054688 1.640625 -17.125 1.046875 -17.15625 L 1.046875 -17.65625 C 1.742188 -17.601562 2.804688 -17.578125 4.234375 -17.578125 C 5.566406 -17.578125 6.625 -17.601562 7.40625 -17.65625 Z M 7.40625 -17.15625 "/></g></g></g><g fill="#000000" fill-opacity="1"><g transform="translate(71.586673, 27.641094)"><g><path d="M 6.828125 -13.1875 C 8.523438 -13.1875 9.894531 -12.625 10.9375 -11.5 C 11.976562 -10.382812 12.5 -8.6875 12.5 -6.40625 C 12.5 -4.132812 11.976562 -2.441406 10.9375 -1.328125 C 9.894531 -0.210938 8.523438 0.34375 6.828125 0.34375 C 5.140625 0.34375 3.773438 -0.210938 2.734375 -1.328125 C 1.691406 -2.441406 1.171875 -4.132812 1.171875 -6.40625 C 1.171875 -8.6875 1.691406 -10.382812 2.734375 -11.5 C 3.773438 -12.625 5.140625 -13.1875 6.828125 -13.1875 Z M 6.828125 -12.6875 C 5.835938 -12.6875 5.050781 -12.175781 4.46875 -11.15625 C 3.882812 -10.132812 3.59375 -8.550781 3.59375 -6.40625 C 3.59375 -4.257812 3.882812 -2.679688 4.46875 -1.671875 C 5.050781 -0.660156 5.835938 -0.15625 6.828125 -0.15625 C 7.828125 -0.15625 8.617188 -0.660156 9.203125 -1.671875 C 9.785156 -2.679688 10.078125 -4.257812 10.078125 -6.40625 C 10.078125 -8.550781 9.785156 -10.132812 9.203125 -11.15625 C 8.617188 -12.175781 7.828125 -12.6875 6.828125 -12.6875 Z M 6.828125 -12.6875 "/></g></g></g><g fill="#000000" fill-opacity="1"><g transform="translate(85.248891, 27.641094)"><g><path d="M 11.75 -10.59375 C 11.445312 -10.59375 11.191406 -10.691406 10.984375 -10.890625 C 10.773438 -11.097656 10.671875 -11.390625 10.671875 -11.765625 C 10.671875 -12.097656 10.753906 -12.484375 10.921875 -12.921875 C 10.492188 -12.734375 10.15625 -12.523438 9.90625 -12.296875 C 9.65625 -12.078125 9.429688 -11.800781 9.234375 -11.46875 C 9.609375 -10.882812 9.796875 -10.144531 9.796875 -9.25 C 9.796875 -7.9375 9.394531 -6.953125 8.59375 -6.296875 C 7.800781 -5.640625 6.75 -5.3125 5.4375 -5.3125 L 5.40625 -5.3125 C 4.863281 -5 4.445312 -4.707031 4.15625 -4.4375 C 3.875 -4.175781 3.734375 -3.878906 3.734375 -3.546875 C 3.734375 -3.015625 4.132812 -2.75 4.9375 -2.75 L 8.0625 -2.75 C 9.1875 -2.75 10.117188 -2.5 10.859375 -2 C 11.597656 -1.507812 11.96875 -0.773438 11.96875 0.203125 C 11.96875 0.992188 11.707031 1.726562 11.1875 2.40625 C 10.675781 3.09375 9.921875 3.644531 8.921875 4.0625 C 7.929688 4.476562 6.726562 4.6875 5.3125 4.6875 C 3.863281 4.6875 2.648438 4.460938 1.671875 4.015625 C 0.703125 3.578125 0.21875 2.925781 0.21875 2.0625 C 0.21875 1.5 0.445312 1.007812 0.90625 0.59375 C 1.363281 0.175781 2 -0.144531 2.8125 -0.375 L 2.96875 0.03125 C 2.601562 0.144531 2.3125 0.375 2.09375 0.71875 C 1.875 1.070312 1.765625 1.460938 1.765625 1.890625 C 1.765625 2.660156 2.109375 3.25 2.796875 3.65625 C 3.492188 4.0625 4.425781 4.265625 5.59375 4.265625 C 6.863281 4.265625 7.957031 4.019531 8.875 3.53125 C 9.789062 3.039062 10.25 2.28125 10.25 1.25 C 10.25 0.644531 10.035156 0.179688 9.609375 -0.140625 C 9.191406 -0.472656 8.441406 -0.640625 7.359375 -0.640625 L 5.515625 -0.640625 C 4.535156 -0.640625 3.75 -0.765625 3.15625 -1.015625 C 2.5625 -1.265625 2.265625 -1.765625 2.265625 -2.515625 C 2.265625 -3.035156 2.453125 -3.523438 2.828125 -3.984375 C 3.203125 -4.453125 3.820312 -4.910156 4.6875 -5.359375 C 3.59375 -5.472656 2.71875 -5.851562 2.0625 -6.5 C 1.40625 -7.15625 1.078125 -8.070312 1.078125 -9.25 C 1.078125 -10.5625 1.472656 -11.546875 2.265625 -12.203125 C 3.066406 -12.859375 4.125 -13.1875 5.4375 -13.1875 C 7 -13.1875 8.15625 -12.753906 8.90625 -11.890625 C 9.21875 -12.335938 9.613281 -12.707031 10.09375 -13 C 10.582031 -13.289062 11.066406 -13.4375 11.546875 -13.4375 C 11.972656 -13.4375 12.320312 -13.3125 12.59375 -13.0625 C 12.863281 -12.8125 13 -12.457031 13 -12 C 13 -11.53125 12.867188 -11.175781 12.609375 -10.9375 C 12.347656 -10.707031 12.0625 -10.59375 11.75 -10.59375 Z M 5.4375 -5.765625 C 6.101562 -5.765625 6.601562 -6.023438 6.9375 -6.546875 C 7.28125 -7.066406 7.453125 -7.96875 7.453125 -9.25 C 7.453125 -10.53125 7.28125 -11.429688 6.9375 -11.953125 C 6.601562 -12.484375 6.101562 -12.75 5.4375 -12.75 C 4.769531 -12.75 4.265625 -12.484375 3.921875 -11.953125 C 3.585938 -11.429688 3.421875 -10.53125 3.421875 -9.25 C 3.421875 -7.96875 3.585938 -7.066406 3.921875 -6.546875 C 4.265625 -6.023438 4.769531 -5.765625 5.4375 -5.765625 Z M 5.4375 -5.765625 "/></g></g></g><g fill="#000000" fill-opacity="1"><g transform="translate(105.478418, 28.657408)"><g><path d="M -0.640625 -0.890625 L -0.296875 -0.890625 C 0.0351562 -0.890625 0.304688 -0.796875 0.515625 -0.609375 C 0.734375 -0.429688 0.84375 -0.222656 0.84375 0.015625 C 0.84375 0.140625 0.785156 0.203125 0.671875 0.203125 C 0.628906 0.203125 0.578125 0.179688 0.515625 0.140625 C 0.460938 0.109375 0.4375 0.0820312 0.4375 0.0625 C 0.4375 0.0390625 0.457031 0.0078125 0.5 -0.03125 C 0.550781 -0.0703125 0.578125 -0.125 0.578125 -0.1875 C 0.578125 -0.351562 0.460938 -0.457031 0.234375 -0.5 C 0.0351562 -0.53125 -0.109375 -0.546875 -0.203125 -0.546875 L -0.828125 -0.546875 C -0.890625 -0.546875 -0.941406 -0.546875 -0.984375 -0.546875 C -1.023438 -0.546875 -1.070312 -0.546875 -1.125 -0.546875 C -1.269531 -0.535156 -1.550781 -0.53125 -1.96875 -0.53125 C -2.394531 -0.53125 -2.648438 -0.523438 -2.734375 -0.515625 C -2.816406 -0.503906 -2.875 -0.460938 -2.90625 -0.390625 C -2.945312 -0.328125 -2.96875 -0.257812 -2.96875 -0.1875 C -2.976562 -0.125 -3.003906 -0.09375 -3.046875 -0.09375 C -3.097656 -0.09375 -3.125 -0.132812 -3.125 -0.21875 C -3.125 -0.25 -3.117188 -0.316406 -3.109375 -0.421875 C -3.109375 -0.523438 -3.109375 -0.625 -3.109375 -0.71875 C -3.109375 -0.71875 -3.109375 -0.832031 -3.109375 -1.0625 C -3.109375 -1.144531 -3.085938 -1.1875 -3.046875 -1.1875 C -3.023438 -1.1875 -2.984375 -1.117188 -2.921875 -0.984375 C -2.898438 -0.921875 -2.800781 -0.890625 -2.625 -0.890625 Z M -0.640625 -0.890625 "/></g></g></g><g fill="#000000" fill-opacity="1"><g transform="translate(105.478418, 27.385339)"><g><path d="M -1.5625 -0.515625 L -2.3125 -0.515625 C -2.394531 -0.515625 -2.53125 -0.515625 -2.71875 -0.515625 C -2.800781 -0.515625 -2.863281 -0.476562 -2.90625 -0.40625 C -2.957031 -0.332031 -2.984375 -0.25 -2.984375 -0.15625 C -2.984375 -0.113281 -3.007812 -0.09375 -3.0625 -0.09375 C -3.101562 -0.09375 -3.125 -0.128906 -3.125 -0.203125 L -3.125 -0.328125 L -3.09375 -1.40625 L -3.125 -2.28125 C -3.125 -2.332031 -3.085938 -2.359375 -3.015625 -2.359375 C -2.992188 -2.359375 -2.9375 -2.347656 -2.84375 -2.328125 C -2.75 -2.316406 -2.671875 -2.3125 -2.609375 -2.3125 C -2.515625 -2.3125 -2.46875 -2.285156 -2.46875 -2.234375 C -2.46875 -2.191406 -2.503906 -2.171875 -2.578125 -2.171875 C -2.648438 -2.171875 -2.71875 -2.144531 -2.78125 -2.09375 C -2.84375 -2.050781 -2.875 -1.992188 -2.875 -1.921875 C -2.894531 -1.648438 -2.90625 -1.445312 -2.90625 -1.3125 L -2.90625 -1.1875 C -2.90625 -1.039062 -2.894531 -0.957031 -2.875 -0.9375 C -2.84375 -0.882812 -2.519531 -0.859375 -1.90625 -0.859375 C -1.757812 -0.859375 -1.6875 -0.890625 -1.6875 -0.953125 L -1.6875 -1.375 C -1.6875 -1.550781 -1.691406 -1.671875 -1.703125 -1.734375 C -1.734375 -1.878906 -1.8125 -1.960938 -1.9375 -1.984375 C -1.976562 -1.992188 -2 -2.015625 -2 -2.046875 C -2 -2.078125 -1.992188 -2.09375 -1.984375 -2.09375 C -1.984375 -2.101562 -1.96875 -2.109375 -1.9375 -2.109375 L -1.46875 -2.078125 L -1.203125 -2.078125 C -1.128906 -2.078125 -1.09375 -2.070312 -1.09375 -2.0625 C -1.09375 -2.007812 -1.128906 -1.972656 -1.203125 -1.953125 C -1.328125 -1.910156 -1.398438 -1.875 -1.421875 -1.84375 C -1.460938 -1.78125 -1.484375 -1.675781 -1.484375 -1.53125 L -1.484375 -1.046875 C -1.484375 -0.921875 -1.457031 -0.859375 -1.40625 -0.859375 L -0.59375 -0.859375 C -0.382812 -0.859375 -0.265625 -0.890625 -0.234375 -0.953125 C -0.210938 -1.023438 -0.203125 -1.085938 -0.203125 -1.140625 C -0.203125 -1.578125 -0.238281 -1.894531 -0.3125 -2.09375 C -0.375 -2.269531 -0.441406 -2.378906 -0.515625 -2.421875 C -0.585938 -2.453125 -0.625 -2.484375 -0.625 -2.515625 C -0.625 -2.546875 -0.597656 -2.5625 -0.546875 -2.5625 C -0.421875 -2.5625 -0.296875 -2.5 -0.171875 -2.375 C -0.046875 -2.25 0.015625 -2.140625 0.015625 -2.046875 C 0.015625 -1.835938 0.0078125 -1.597656 0 -1.328125 C -0.0078125 -1.066406 -0.015625 -0.90625 -0.015625 -0.84375 L 0.015625 -0.234375 C 0.015625 -0.179688 0 -0.15625 -0.03125 -0.15625 L -0.078125 -0.15625 C -0.0976562 -0.15625 -0.109375 -0.164062 -0.109375 -0.1875 C -0.117188 -0.21875 -0.140625 -0.265625 -0.171875 -0.328125 C -0.203125 -0.398438 -0.265625 -0.445312 -0.359375 -0.46875 C -0.460938 -0.5 -0.679688 -0.515625 -1.015625 -0.515625 Z M -1.5625 -0.515625 "/></g></g></g><g fill="#000000" fill-opacity="1"><g transform="translate(105.478418, 24.735932)"><g><path d="M 0.015625 -0.625 L 0.015625 -0.265625 C 0.015625 -0.191406 -0.00390625 -0.15625 -0.046875 -0.15625 C -0.078125 -0.15625 -0.09375 -0.175781 -0.09375 -0.21875 C -0.101562 -0.257812 -0.128906 -0.304688 -0.171875 -0.359375 C -0.210938 -0.410156 -0.273438 -0.445312 -0.359375 -0.46875 C -0.441406 -0.5 -0.722656 -0.523438 -1.203125 -0.546875 C -1.679688 -0.578125 -2.023438 -0.59375 -2.234375 -0.59375 C -2.453125 -0.59375 -2.625 -0.554688 -2.75 -0.484375 C -2.875 -0.410156 -2.945312 -0.296875 -2.96875 -0.140625 C -2.96875 -0.109375 -2.988281 -0.09375 -3.03125 -0.09375 C -3.050781 -0.09375 -3.066406 -0.101562 -3.078125 -0.125 C -3.097656 -0.144531 -3.109375 -0.171875 -3.109375 -0.203125 L -3.109375 -0.578125 C -3.109375 -0.609375 -3.097656 -0.640625 -3.078125 -0.671875 C -3.066406 -0.703125 -3.054688 -0.71875 -3.046875 -0.71875 C -3.035156 -0.726562 -3.015625 -0.75 -2.984375 -0.78125 C -2.953125 -0.8125 -2.910156 -0.847656 -2.859375 -0.890625 C -2.804688 -0.929688 -2.757812 -0.96875 -2.71875 -1 C -2.195312 -1.40625 -1.570312 -1.941406 -0.84375 -2.609375 C -0.820312 -2.617188 -0.796875 -2.632812 -0.765625 -2.65625 C -0.742188 -2.6875 -0.722656 -2.707031 -0.703125 -2.71875 C -0.691406 -2.726562 -0.679688 -2.738281 -0.671875 -2.75 C -0.648438 -2.769531 -0.640625 -2.785156 -0.640625 -2.796875 C -0.640625 -2.828125 -0.726562 -2.84375 -0.90625 -2.84375 L -2.359375 -2.84375 C -2.628906 -2.84375 -2.800781 -2.796875 -2.875 -2.703125 C -2.894531 -2.660156 -2.910156 -2.628906 -2.921875 -2.609375 C -2.929688 -2.585938 -2.941406 -2.550781 -2.953125 -2.5 C -2.972656 -2.382812 -3.003906 -2.328125 -3.046875 -2.328125 C -3.085938 -2.328125 -3.109375 -2.351562 -3.109375 -2.40625 L -3.109375 -2.828125 C -3.109375 -2.828125 -3.109375 -2.957031 -3.109375 -3.21875 C -3.109375 -3.269531 -3.101562 -3.304688 -3.09375 -3.328125 C -3.082031 -3.347656 -3.066406 -3.359375 -3.046875 -3.359375 C -3.023438 -3.359375 -3.007812 -3.347656 -3 -3.328125 C -2.988281 -3.304688 -2.972656 -3.265625 -2.953125 -3.203125 C -2.898438 -3.109375 -2.734375 -3.0625 -2.453125 -3.0625 L -2.28125 -3.0625 L -0.109375 -3 L -0.03125 -3 C 0.0390625 -3 0.078125 -2.984375 0.078125 -2.953125 C 0.078125 -2.921875 0.0664062 -2.894531 0.046875 -2.875 C -1.078125 -1.90625 -1.742188 -1.328125 -1.953125 -1.140625 C -2.171875 -0.953125 -2.28125 -0.847656 -2.28125 -0.828125 C -2.28125 -0.796875 -2.160156 -0.78125 -1.921875 -0.78125 C -1.679688 -0.78125 -1.398438 -0.769531 -1.078125 -0.75 C -0.765625 -0.738281 -0.59375 -0.734375 -0.5625 -0.734375 C -0.425781 -0.734375 -0.320312 -0.753906 -0.25 -0.796875 C -0.1875 -0.847656 -0.148438 -0.898438 -0.140625 -0.953125 C -0.128906 -1.003906 -0.117188 -1.050781 -0.109375 -1.09375 C -0.0976562 -1.144531 -0.078125 -1.171875 -0.046875 -1.171875 C -0.0234375 -1.171875 -0.0078125 -1.164062 0 -1.15625 C 0.0078125 -1.144531 0.015625 -1.128906 0.015625 -1.109375 Z M 0.015625 -0.625 "/></g></g></g><g fill="#000000" fill-opacity="1"><g transform="translate(105.478418, 21.235561)"><g><path d="M 0.015625 -0.625 L 0.015625 -0.265625 C 0.015625 -0.191406 -0.00390625 -0.15625 -0.046875 -0.15625 C -0.078125 -0.15625 -0.09375 -0.175781 -0.09375 -0.21875 C -0.101562 -0.257812 -0.128906 -0.304688 -0.171875 -0.359375 C -0.210938 -0.410156 -0.273438 -0.445312 -0.359375 -0.46875 C -0.441406 -0.5 -0.722656 -0.523438 -1.203125 -0.546875 C -1.679688 -0.578125 -2.023438 -0.59375 -2.234375 -0.59375 C -2.453125 -0.59375 -2.625 -0.554688 -2.75 -0.484375 C -2.875 -0.410156 -2.945312 -0.296875 -2.96875 -0.140625 C -2.96875 -0.109375 -2.988281 -0.09375 -3.03125 -0.09375 C -3.050781 -0.09375 -3.066406 -0.101562 -3.078125 -0.125 C -3.097656 -0.144531 -3.109375 -0.171875 -3.109375 -0.203125 L -3.109375 -0.578125 C -3.109375 -0.609375 -3.097656 -0.640625 -3.078125 -0.671875 C -3.066406 -0.703125 -3.054688 -0.71875 -3.046875 -0.71875 C -3.035156 -0.726562 -3.015625 -0.75 -2.984375 -0.78125 C -2.953125 -0.8125 -2.910156 -0.847656 -2.859375 -0.890625 C -2.804688 -0.929688 -2.757812 -0.96875 -2.71875 -1 C -2.195312 -1.40625 -1.570312 -1.941406 -0.84375 -2.609375 C -0.820312 -2.617188 -0.796875 -2.632812 -0.765625 -2.65625 C -0.742188 -2.6875 -0.722656 -2.707031 -0.703125 -2.71875 C -0.691406 -2.726562 -0.679688 -2.738281 -0.671875 -2.75 C -0.648438 -2.769531 -0.640625 -2.785156 -0.640625 -2.796875 C -0.640625 -2.828125 -0.726562 -2.84375 -0.90625 -2.84375 L -2.359375 -2.84375 C -2.628906 -2.84375 -2.800781 -2.796875 -2.875 -2.703125 C -2.894531 -2.660156 -2.910156 -2.628906 -2.921875 -2.609375 C -2.929688 -2.585938 -2.941406 -2.550781 -2.953125 -2.5 C -2.972656 -2.382812 -3.003906 -2.328125 -3.046875 -2.328125 C -3.085938 -2.328125 -3.109375 -2.351562 -3.109375 -2.40625 L -3.109375 -2.828125 C -3.109375 -2.828125 -3.109375 -2.957031 -3.109375 -3.21875 C -3.109375 -3.269531 -3.101562 -3.304688 -3.09375 -3.328125 C -3.082031 -3.347656 -3.066406 -3.359375 -3.046875 -3.359375 C -3.023438 -3.359375 -3.007812 -3.347656 -3 -3.328125 C -2.988281 -3.304688 -2.972656 -3.265625 -2.953125 -3.203125 C -2.898438 -3.109375 -2.734375 -3.0625 -2.453125 -3.0625 L -2.28125 -3.0625 L -0.109375 -3 L -0.03125 -3 C 0.0390625 -3 0.078125 -2.984375 0.078125 -2.953125 C 0.078125 -2.921875 0.0664062 -2.894531 0.046875 -2.875 C -1.078125 -1.90625 -1.742188 -1.328125 -1.953125 -1.140625 C -2.171875 -0.953125 -2.28125 -0.847656 -2.28125 -0.828125 C -2.28125 -0.796875 -2.160156 -0.78125 -1.921875 -0.78125 C -1.679688 -0.78125 -1.398438 -0.769531 -1.078125 -0.75 C -0.765625 -0.738281 -0.59375 -0.734375 -0.5625 -0.734375 C -0.425781 -0.734375 -0.320312 -0.753906 -0.25 -0.796875 C -0.1875 -0.847656 -0.148438 -0.898438 -0.140625 -0.953125 C -0.128906 -1.003906 -0.117188 -1.050781 -0.109375 -1.09375 C -0.0976562 -1.144531 -0.078125 -1.171875 -0.046875 -1.171875 C -0.0234375 -1.171875 -0.0078125 -1.164062 0 -1.15625 C 0.0078125 -1.144531 0.015625 -1.128906 0.015625 -1.109375 Z M 0.015625 -0.625 "/></g></g></g><g fill="#000000" fill-opacity="1"><g transform="translate(105.478418, 17.735191)"><g><path d="M -0.390625 -1.4375 L -1.28125 -1.4375 C -1.40625 -1.4375 -1.523438 -1.398438 -1.640625 -1.328125 C -1.753906 -1.253906 -1.894531 -1.160156 -2.0625 -1.046875 C -2.226562 -0.929688 -2.375 -0.828125 -2.5 -0.734375 C -2.632812 -0.648438 -2.738281 -0.570312 -2.8125 -0.5 C -2.882812 -0.425781 -2.925781 -0.367188 -2.9375 -0.328125 C -2.957031 -0.296875 -2.96875 -0.25 -2.96875 -0.1875 C -2.96875 -0.125 -2.984375 -0.09375 -3.015625 -0.09375 C -3.046875 -0.09375 -3.066406 -0.109375 -3.078125 -0.140625 C -3.085938 -0.171875 -3.09375 -0.242188 -3.09375 -0.359375 L -3.09375 -0.984375 C -3.09375 -1.128906 -3.070312 -1.203125 -3.03125 -1.203125 C -3 -1.203125 -2.972656 -1.171875 -2.953125 -1.109375 C -2.929688 -1.046875 -2.90625 -1.015625 -2.875 -1.015625 C -2.851562 -1.015625 -2.816406 -1.023438 -2.765625 -1.046875 C -2.722656 -1.066406 -2.6875 -1.085938 -2.65625 -1.109375 C -2.625 -1.128906 -2.582031 -1.15625 -2.53125 -1.1875 C -2.476562 -1.226562 -2.40625 -1.273438 -2.3125 -1.328125 C -2.226562 -1.378906 -2.113281 -1.457031 -1.96875 -1.5625 C -1.832031 -1.675781 -1.765625 -1.738281 -1.765625 -1.75 C -1.765625 -1.769531 -1.78125 -1.789062 -1.8125 -1.8125 C -1.84375 -1.84375 -1.894531 -1.878906 -1.96875 -1.921875 C -2.050781 -1.972656 -2.109375 -2.007812 -2.140625 -2.03125 C -2.171875 -2.050781 -2.210938 -2.078125 -2.265625 -2.109375 C -2.316406 -2.140625 -2.351562 -2.160156 -2.375 -2.171875 C -2.394531 -2.191406 -2.425781 -2.210938 -2.46875 -2.234375 C -2.507812 -2.265625 -2.539062 -2.285156 -2.5625 -2.296875 C -2.582031 -2.304688 -2.609375 -2.316406 -2.640625 -2.328125 C -2.691406 -2.359375 -2.738281 -2.375 -2.78125 -2.375 C -2.882812 -2.375 -2.941406 -2.304688 -2.953125 -2.171875 C -2.960938 -2.109375 -2.972656 -2.070312 -2.984375 -2.0625 C -3.003906 -2.0625 -3.023438 -2.0625 -3.046875 -2.0625 C -3.078125 -2.0625 -3.09375 -2.097656 -3.09375 -2.171875 L -3.09375 -2.828125 C -3.09375 -2.960938 -3.066406 -3.03125 -3.015625 -3.03125 C -3.003906 -3.03125 -2.992188 -3.019531 -2.984375 -3 C -2.984375 -2.988281 -2.972656 -2.96875 -2.953125 -2.9375 C -2.941406 -2.90625 -2.925781 -2.875 -2.90625 -2.84375 C -2.8125 -2.726562 -2.585938 -2.550781 -2.234375 -2.3125 C -1.878906 -2.082031 -1.675781 -1.945312 -1.625 -1.90625 C -1.582031 -1.875 -1.523438 -1.847656 -1.453125 -1.828125 C -1.378906 -1.816406 -1.257812 -1.8125 -1.09375 -1.8125 L -0.578125 -1.828125 L -0.484375 -1.828125 C -0.378906 -1.828125 -0.300781 -1.84375 -0.25 -1.875 C -0.195312 -1.90625 -0.164062 -1.9375 -0.15625 -1.96875 C -0.144531 -2 -0.140625 -2.03125 -0.140625 -2.0625 L -0.125 -2.140625 C -0.125 -2.160156 -0.117188 -2.175781 -0.109375 -2.1875 C -0.0976562 -2.195312 -0.0820312 -2.203125 -0.0625 -2.203125 C -0.0390625 -2.203125 -0.0234375 -2.195312 -0.015625 -2.1875 C -0.00390625 -2.175781 0 -2.148438 0 -2.109375 L 0 -1.671875 L 0.015625 -1.1875 C 0.015625 -1.101562 0 -1.0625 -0.03125 -1.0625 C -0.0625 -1.0625 -0.0820312 -1.066406 -0.09375 -1.078125 C -0.101562 -1.097656 -0.109375 -1.125 -0.109375 -1.15625 C -0.109375 -1.195312 -0.113281 -1.226562 -0.125 -1.25 C -0.164062 -1.375 -0.253906 -1.4375 -0.390625 -1.4375 Z M -0.390625 -1.4375 "/></g></g></g></svg>