<svg xmlns="http://www.w3.org/2000/svg" xmlns:xlink="http://www.w3.org/1999/xlink" width="150" zoomAndPan="magnify" viewBox="0 0 112.5 38.999999" height="52" preserveAspectRatio="xMidYMid meet" version="1.0"><defs><g/><clipPath id="612a369ea3"><path d="M 82.566406 4.058594 L 112.003906 4.058594 L 112.003906 35 L 82.566406 35 Z M 82.566406 4.058594 " clip-rule="nonzero"/></clipPath><clipPath id="932ef7ae26"><path d="M 97.285156 4.058594 C 89.15625 4.058594 82.566406 10.992188 82.566406 19.542969 C 82.566406 28.097656 89.15625 35.03125 97.285156 35.03125 C 105.414062 35.03125 112.003906 28.097656 112.003906 19.542969 C 112.003906 10.992188 105.414062 4.058594 97.285156 4.058594 Z M 97.285156 4.058594 " clip-rule="nonzero"/></clipPath></defs><g clip-path="url(#612a369ea3)"><g clip-path="url(#932ef7ae26)"><path fill="#ff914d" d="M 82.566406 4.058594 L 112.003906 4.058594 L 112.003906 34.988281 L 82.566406 34.988281 Z M 82.566406 4.058594 " fill-opacity="1" fill-rule="nonzero"/></g></g><g fill="#ffffff" fill-opacity="1"><g transform="translate(8.311051, 27.051789)"><g><path d="M 7.140625 -16.53125 C 6.554688 -16.5 6.132812 -16.4375 5.875 -16.34375 C 5.613281 -16.25 5.429688 -16.0625 5.328125 -15.78125 C 5.234375 -15.507812 5.1875 -15.070312 5.1875 -14.46875 L 5.1875 -2.546875 C 5.1875 -1.941406 5.234375 -1.5 5.328125 -1.21875 C 5.429688 -0.945312 5.613281 -0.765625 5.875 -0.671875 C 6.132812 -0.585938 6.554688 -0.546875 7.140625 -0.546875 L 8.890625 -0.546875 C 9.878906 -0.546875 10.632812 -0.6875 11.15625 -0.96875 C 11.675781 -1.25 12.054688 -1.703125 12.296875 -2.328125 C 12.546875 -2.953125 12.722656 -3.859375 12.828125 -5.046875 L 13.390625 -5.046875 C 13.335938 -4.546875 13.3125 -3.890625 13.3125 -3.078125 C 13.3125 -2.160156 13.367188 -1.132812 13.484375 0 C 12.390625 -0.0507812 10.554688 -0.078125 7.984375 -0.078125 C 4.898438 -0.078125 2.578125 -0.0507812 1.015625 0 L 1.015625 -0.484375 C 1.585938 -0.515625 2.003906 -0.578125 2.265625 -0.671875 C 2.535156 -0.765625 2.71875 -0.945312 2.8125 -1.21875 C 2.90625 -1.5 2.953125 -1.941406 2.953125 -2.546875 L 2.953125 -14.46875 C 2.953125 -15.070312 2.90625 -15.507812 2.8125 -15.78125 C 2.71875 -16.0625 2.535156 -16.25 2.265625 -16.34375 C 2.003906 -16.4375 1.585938 -16.5 1.015625 -16.53125 L 1.015625 -17.015625 C 1.679688 -16.960938 2.703125 -16.9375 4.078125 -16.9375 C 5.359375 -16.9375 6.378906 -16.960938 7.140625 -17.015625 Z M 7.140625 -16.53125 "/></g></g></g><g fill="#ffffff" fill-opacity="1"><g transform="translate(22.445215, 27.051789)"><g><path d="M 7.140625 -16.53125 C 6.554688 -16.5 6.132812 -16.4375 5.875 -16.34375 C 5.613281 -16.25 5.429688 -16.0625 5.328125 -15.78125 C 5.234375 -15.507812 5.1875 -15.070312 5.1875 -14.46875 L 5.1875 -2.546875 C 5.1875 -1.941406 5.234375 -1.5 5.328125 -1.21875 C 5.429688 -0.945312 5.613281 -0.765625 5.875 -0.671875 C 6.132812 -0.578125 6.554688 -0.515625 7.140625 -0.484375 L 7.140625 0 C 6.398438 -0.0507812 5.378906 -0.078125 4.078125 -0.078125 C 2.703125 -0.078125 1.679688 -0.0507812 1.015625 0 L 1.015625 -0.484375 C 1.585938 -0.515625 2.003906 -0.578125 2.265625 -0.671875 C 2.535156 -0.765625 2.71875 -0.945312 2.8125 -1.21875 C 2.90625 -1.5 2.953125 -1.941406 2.953125 -2.546875 L 2.953125 -14.46875 C 2.953125 -15.070312 2.90625 -15.507812 2.8125 -15.78125 C 2.71875 -16.0625 2.535156 -16.25 2.265625 -16.34375 C 2.003906 -16.4375 1.585938 -16.5 1.015625 -16.53125 L 1.015625 -17.015625 C 1.679688 -16.960938 2.703125 -16.9375 4.078125 -16.9375 C 5.359375 -16.9375 6.378906 -16.960938 7.140625 -17.015625 Z M 7.140625 -16.53125 "/></g></g></g><g fill="#ffffff" fill-opacity="1"><g transform="translate(30.593996, 27.051789)"><g><path d="M 13 -17.015625 C 12.882812 -15.878906 12.828125 -14.851562 12.828125 -13.9375 C 12.828125 -13.132812 12.851562 -12.476562 12.90625 -11.96875 L 12.359375 -11.96875 C 12.222656 -13.195312 12.054688 -14.113281 11.859375 -14.71875 C 11.671875 -15.320312 11.335938 -15.765625 10.859375 -16.046875 C 10.378906 -16.328125 9.644531 -16.46875 8.65625 -16.46875 L 7.140625 -16.46875 C 6.554688 -16.46875 6.132812 -16.421875 5.875 -16.328125 C 5.613281 -16.242188 5.429688 -16.0625 5.328125 -15.78125 C 5.234375 -15.507812 5.1875 -15.070312 5.1875 -14.46875 L 5.1875 -8.5625 L 6.9375 -8.5625 C 7.5 -8.5625 7.929688 -8.691406 8.234375 -8.953125 C 8.546875 -9.210938 8.753906 -9.519531 8.859375 -9.875 C 8.960938 -10.238281 9.046875 -10.695312 9.109375 -11.25 L 9.1875 -11.734375 L 9.734375 -11.734375 C 9.679688 -11.054688 9.65625 -10.300781 9.65625 -9.46875 L 9.65625 -8.3125 C 9.65625 -7.5 9.707031 -6.363281 9.8125 -4.90625 L 9.25 -4.90625 C 9.238281 -5.019531 9.191406 -5.40625 9.109375 -6.0625 C 9.023438 -6.726562 8.800781 -7.226562 8.4375 -7.5625 C 8.082031 -7.90625 7.582031 -8.078125 6.9375 -8.078125 L 5.1875 -8.078125 L 5.1875 -2.546875 C 5.1875 -1.941406 5.25 -1.5 5.375 -1.21875 C 5.507812 -0.945312 5.734375 -0.765625 6.046875 -0.671875 C 6.367188 -0.578125 6.894531 -0.515625 7.625 -0.484375 L 7.625 0 C 6.789062 -0.0507812 5.609375 -0.078125 4.078125 -0.078125 C 2.703125 -0.078125 1.679688 -0.0507812 1.015625 0 L 1.015625 -0.484375 C 1.585938 -0.515625 2.003906 -0.578125 2.265625 -0.671875 C 2.535156 -0.765625 2.71875 -0.945312 2.8125 -1.21875 C 2.90625 -1.5 2.953125 -1.941406 2.953125 -2.546875 L 2.953125 -14.46875 C 2.953125 -15.070312 2.90625 -15.507812 2.8125 -15.78125 C 2.71875 -16.0625 2.535156 -16.25 2.265625 -16.34375 C 2.003906 -16.4375 1.585938 -16.5 1.015625 -16.53125 L 1.015625 -17.015625 C 2.578125 -16.960938 4.898438 -16.9375 7.984375 -16.9375 C 10.335938 -16.9375 12.007812 -16.960938 13 -17.015625 Z M 13 -17.015625 "/></g></g></g><g fill="#ffffff" fill-opacity="1"><g transform="translate(44.271442, 27.051789)"><g><path d="M 13.3125 -3.078125 C 13.3125 -2.160156 13.367188 -1.132812 13.484375 0 C 12.390625 -0.0507812 10.554688 -0.078125 7.984375 -0.078125 C 4.898438 -0.078125 2.578125 -0.0507812 1.015625 0 L 1.015625 -0.484375 C 1.585938 -0.515625 2.003906 -0.578125 2.265625 -0.671875 C 2.535156 -0.765625 2.71875 -0.945312 2.8125 -1.21875 C 2.90625 -1.5 2.953125 -1.941406 2.953125 -2.546875 L 2.953125 -14.46875 C 2.953125 -15.070312 2.90625 -15.507812 2.8125 -15.78125 C 2.71875 -16.0625 2.535156 -16.25 2.265625 -16.34375 C 2.003906 -16.4375 1.585938 -16.5 1.015625 -16.53125 L 1.015625 -17.015625 C 2.578125 -16.960938 4.898438 -16.9375 7.984375 -16.9375 C 10.335938 -16.9375 12.007812 -16.960938 13 -17.015625 C 12.882812 -15.953125 12.828125 -15.003906 12.828125 -14.171875 C 12.828125 -13.546875 12.851562 -13.050781 12.90625 -12.6875 L 12.359375 -12.6875 C 12.242188 -13.726562 12.097656 -14.5 11.921875 -15 C 11.742188 -15.507812 11.445312 -15.878906 11.03125 -16.109375 C 10.613281 -16.347656 9.976562 -16.46875 9.125 -16.46875 L 7.140625 -16.46875 C 6.554688 -16.46875 6.132812 -16.421875 5.875 -16.328125 C 5.613281 -16.242188 5.429688 -16.0625 5.328125 -15.78125 C 5.234375 -15.507812 5.1875 -15.070312 5.1875 -14.46875 L 5.1875 -8.796875 L 6.78125 -8.796875 C 7.34375 -8.796875 7.773438 -8.925781 8.078125 -9.1875 C 8.378906 -9.457031 8.582031 -9.769531 8.6875 -10.125 C 8.789062 -10.488281 8.875 -10.941406 8.9375 -11.484375 L 9.015625 -11.96875 L 9.5625 -11.96875 C 9.519531 -11.289062 9.5 -10.535156 9.5 -9.703125 L 9.5 -8.5625 C 9.5 -7.738281 9.546875 -6.597656 9.640625 -5.140625 L 9.078125 -5.140625 C 9.066406 -5.253906 9.019531 -5.644531 8.9375 -6.3125 C 8.851562 -6.976562 8.628906 -7.476562 8.265625 -7.8125 C 7.910156 -8.144531 7.414062 -8.3125 6.78125 -8.3125 L 5.1875 -8.3125 L 5.1875 -2.546875 C 5.1875 -1.941406 5.234375 -1.5 5.328125 -1.21875 C 5.429688 -0.945312 5.613281 -0.765625 5.875 -0.671875 C 6.132812 -0.585938 6.554688 -0.546875 7.140625 -0.546875 L 8.890625 -0.546875 C 9.878906 -0.546875 10.632812 -0.675781 11.15625 -0.9375 C 11.675781 -1.207031 12.054688 -1.632812 12.296875 -2.21875 C 12.546875 -2.800781 12.722656 -3.664062 12.828125 -4.8125 L 13.390625 -4.8125 C 13.335938 -4.375 13.3125 -3.796875 13.3125 -3.078125 Z M 13.3125 -3.078125 "/></g></g></g><g fill="#ffffff" fill-opacity="1"><g transform="translate(58.910395, 27.051789)"><g><path d="M 7.140625 -16.53125 C 6.554688 -16.5 6.132812 -16.4375 5.875 -16.34375 C 5.613281 -16.25 5.429688 -16.0625 5.328125 -15.78125 C 5.234375 -15.507812 5.1875 -15.070312 5.1875 -14.46875 L 5.1875 -2.546875 C 5.1875 -1.941406 5.234375 -1.5 5.328125 -1.21875 C 5.429688 -0.945312 5.613281 -0.765625 5.875 -0.671875 C 6.132812 -0.585938 6.554688 -0.546875 7.140625 -0.546875 L 8.890625 -0.546875 C 9.878906 -0.546875 10.632812 -0.6875 11.15625 -0.96875 C 11.675781 -1.25 12.054688 -1.703125 12.296875 -2.328125 C 12.546875 -2.953125 12.722656 -3.859375 12.828125 -5.046875 L 13.390625 -5.046875 C 13.335938 -4.546875 13.3125 -3.890625 13.3125 -3.078125 C 13.3125 -2.160156 13.367188 -1.132812 13.484375 0 C 12.390625 -0.0507812 10.554688 -0.078125 7.984375 -0.078125 C 4.898438 -0.078125 2.578125 -0.0507812 1.015625 0 L 1.015625 -0.484375 C 1.585938 -0.515625 2.003906 -0.578125 2.265625 -0.671875 C 2.535156 -0.765625 2.71875 -0.945312 2.8125 -1.21875 C 2.90625 -1.5 2.953125 -1.941406 2.953125 -2.546875 L 2.953125 -14.46875 C 2.953125 -15.070312 2.90625 -15.507812 2.8125 -15.78125 C 2.71875 -16.0625 2.535156 -16.25 2.265625 -16.34375 C 2.003906 -16.4375 1.585938 -16.5 1.015625 -16.53125 L 1.015625 -17.015625 C 1.679688 -16.960938 2.703125 -16.9375 4.078125 -16.9375 C 5.359375 -16.9375 6.378906 -16.960938 7.140625 -17.015625 Z M 7.140625 -16.53125 "/></g></g></g><g fill="#ffffff" fill-opacity="1"><g transform="translate(73.04456, 27.051789)"><g><path d="M 6.578125 -12.71875 C 8.210938 -12.71875 9.53125 -12.175781 10.53125 -11.09375 C 11.539062 -10.007812 12.046875 -8.367188 12.046875 -6.171875 C 12.046875 -3.984375 11.539062 -2.347656 10.53125 -1.265625 C 9.53125 -0.191406 8.210938 0.34375 6.578125 0.34375 C 4.953125 0.34375 3.632812 -0.191406 2.625 -1.265625 C 1.625 -2.347656 1.125 -3.984375 1.125 -6.171875 C 1.125 -8.367188 1.625 -10.007812 2.625 -11.09375 C 3.632812 -12.175781 4.953125 -12.71875 6.578125 -12.71875 Z M 6.578125 -12.234375 C 5.617188 -12.234375 4.859375 -11.738281 4.296875 -10.75 C 3.734375 -9.769531 3.453125 -8.242188 3.453125 -6.171875 C 3.453125 -4.109375 3.734375 -2.585938 4.296875 -1.609375 C 4.859375 -0.628906 5.617188 -0.140625 6.578125 -0.140625 C 7.546875 -0.140625 8.304688 -0.628906 8.859375 -1.609375 C 9.421875 -2.585938 9.703125 -4.109375 9.703125 -6.171875 C 9.703125 -8.242188 9.421875 -9.769531 8.859375 -10.75 C 8.304688 -11.738281 7.546875 -12.234375 6.578125 -12.234375 Z M 6.578125 -12.234375 "/></g></g></g><g fill="#ffffff" fill-opacity="1"><g transform="translate(86.217217, 27.051789)"><g><path d="M 11.3125 -10.21875 C 11.03125 -10.21875 10.785156 -10.3125 10.578125 -10.5 C 10.378906 -10.695312 10.28125 -10.976562 10.28125 -11.34375 C 10.28125 -11.664062 10.363281 -12.035156 10.53125 -12.453125 C 10.113281 -12.273438 9.785156 -12.078125 9.546875 -11.859375 C 9.304688 -11.640625 9.085938 -11.367188 8.890625 -11.046875 C 9.253906 -10.492188 9.4375 -9.785156 9.4375 -8.921875 C 9.4375 -7.648438 9.050781 -6.695312 8.28125 -6.0625 C 7.519531 -5.4375 6.503906 -5.125 5.234375 -5.125 L 5.21875 -5.125 C 4.6875 -4.8125 4.285156 -4.523438 4.015625 -4.265625 C 3.742188 -4.015625 3.609375 -3.726562 3.609375 -3.40625 C 3.609375 -2.894531 3.992188 -2.640625 4.765625 -2.640625 L 7.765625 -2.640625 C 8.847656 -2.640625 9.742188 -2.398438 10.453125 -1.921875 C 11.171875 -1.453125 11.53125 -0.75 11.53125 0.1875 C 11.53125 0.957031 11.28125 1.671875 10.78125 2.328125 C 10.289062 2.984375 9.5625 3.507812 8.59375 3.90625 C 7.632812 4.3125 6.476562 4.515625 5.125 4.515625 C 3.726562 4.515625 2.5625 4.300781 1.625 3.875 C 0.6875 3.457031 0.21875 2.832031 0.21875 2 C 0.21875 1.445312 0.4375 0.96875 0.875 0.5625 C 1.3125 0.164062 1.925781 -0.140625 2.71875 -0.359375 L 2.859375 0.03125 C 2.503906 0.132812 2.222656 0.351562 2.015625 0.6875 C 1.804688 1.03125 1.703125 1.410156 1.703125 1.828125 C 1.703125 2.566406 2.035156 3.128906 2.703125 3.515625 C 3.367188 3.910156 4.265625 4.109375 5.390625 4.109375 C 6.617188 4.109375 7.671875 3.867188 8.546875 3.390625 C 9.429688 2.921875 9.875 2.191406 9.875 1.203125 C 9.875 0.628906 9.671875 0.179688 9.265625 -0.140625 C 8.859375 -0.460938 8.132812 -0.625 7.09375 -0.625 L 5.3125 -0.625 C 4.363281 -0.625 3.601562 -0.742188 3.03125 -0.984375 C 2.46875 -1.222656 2.1875 -1.703125 2.1875 -2.421875 C 2.1875 -2.921875 2.363281 -3.394531 2.71875 -3.84375 C 3.082031 -4.289062 3.679688 -4.734375 4.515625 -5.171875 C 3.460938 -5.273438 2.617188 -5.640625 1.984375 -6.265625 C 1.347656 -6.890625 1.03125 -7.773438 1.03125 -8.921875 C 1.03125 -10.179688 1.414062 -11.128906 2.1875 -11.765625 C 2.957031 -12.398438 3.972656 -12.71875 5.234375 -12.71875 C 6.742188 -12.71875 7.859375 -12.300781 8.578125 -11.46875 C 8.878906 -11.894531 9.257812 -12.25 9.71875 -12.53125 C 10.1875 -12.8125 10.65625 -12.953125 11.125 -12.953125 C 11.539062 -12.953125 11.875 -12.832031 12.125 -12.59375 C 12.382812 -12.351562 12.515625 -12.007812 12.515625 -11.5625 C 12.515625 -11.113281 12.390625 -10.773438 12.140625 -10.546875 C 11.898438 -10.328125 11.625 -10.21875 11.3125 -10.21875 Z M 5.234375 -5.546875 C 5.878906 -5.546875 6.363281 -5.796875 6.6875 -6.296875 C 7.019531 -6.804688 7.1875 -7.679688 7.1875 -8.921875 C 7.1875 -10.148438 7.019531 -11.015625 6.6875 -11.515625 C 6.363281 -12.023438 5.878906 -12.28125 5.234375 -12.28125 C 4.597656 -12.28125 4.113281 -12.023438 3.78125 -11.515625 C 3.457031 -11.015625 3.296875 -10.148438 3.296875 -8.921875 C 3.296875 -7.679688 3.457031 -6.804688 3.78125 -6.296875 C 4.113281 -5.796875 4.597656 -5.546875 5.234375 -5.546875 Z M 5.234375 -5.546875 "/></g></g></g><g fill="#000000" fill-opacity="1"><g transform="translate(105.714527, 28.212474)"><g><path d="M -0.625 -0.859375 L -0.296875 -0.859375 C 0.0234375 -0.859375 0.289062 -0.769531 0.5 -0.59375 C 0.707031 -0.414062 0.8125 -0.210938 0.8125 0.015625 C 0.8125 0.128906 0.757812 0.1875 0.65625 0.1875 C 0.613281 0.1875 0.5625 0.171875 0.5 0.140625 C 0.445312 0.109375 0.421875 0.0820312 0.421875 0.0625 C 0.421875 0.0390625 0.441406 0.0078125 0.484375 -0.03125 C 0.535156 -0.0703125 0.5625 -0.125 0.5625 -0.1875 C 0.5625 -0.34375 0.453125 -0.441406 0.234375 -0.484375 C 0.0351562 -0.515625 -0.101562 -0.53125 -0.1875 -0.53125 L -0.796875 -0.53125 C -0.859375 -0.53125 -0.910156 -0.53125 -0.953125 -0.53125 C -0.992188 -0.53125 -1.035156 -0.53125 -1.078125 -0.53125 C -1.222656 -0.519531 -1.5 -0.515625 -1.90625 -0.515625 C -2.3125 -0.515625 -2.554688 -0.507812 -2.640625 -0.5 C -2.722656 -0.488281 -2.78125 -0.445312 -2.8125 -0.375 C -2.84375 -0.3125 -2.859375 -0.242188 -2.859375 -0.171875 C -2.867188 -0.109375 -2.894531 -0.078125 -2.9375 -0.078125 C -2.988281 -0.078125 -3.015625 -0.117188 -3.015625 -0.203125 C -3.015625 -0.234375 -3.007812 -0.296875 -3 -0.390625 C -3 -0.492188 -3 -0.59375 -3 -0.6875 C -3 -0.6875 -3 -0.800781 -3 -1.03125 C -3 -1.101562 -2.976562 -1.140625 -2.9375 -1.140625 C -2.914062 -1.140625 -2.878906 -1.078125 -2.828125 -0.953125 C -2.804688 -0.890625 -2.707031 -0.859375 -2.53125 -0.859375 Z M -0.625 -0.859375 "/></g></g></g><g fill="#000000" fill-opacity="1"><g transform="translate(105.714527, 26.986442)"><g><path d="M -1.5 -0.484375 L -2.234375 -0.5 C -2.304688 -0.5 -2.4375 -0.5 -2.625 -0.5 C -2.707031 -0.488281 -2.769531 -0.445312 -2.8125 -0.375 C -2.851562 -0.3125 -2.878906 -0.238281 -2.890625 -0.15625 C -2.890625 -0.101562 -2.910156 -0.078125 -2.953125 -0.078125 C -2.992188 -0.078125 -3.015625 -0.117188 -3.015625 -0.203125 L -3.015625 -0.3125 L -2.984375 -1.34375 L -3 -2.203125 C -3 -2.253906 -2.96875 -2.28125 -2.90625 -2.28125 C -2.894531 -2.28125 -2.835938 -2.269531 -2.734375 -2.25 C -2.640625 -2.238281 -2.566406 -2.234375 -2.515625 -2.234375 C -2.429688 -2.234375 -2.390625 -2.207031 -2.390625 -2.15625 C -2.390625 -2.113281 -2.421875 -2.09375 -2.484375 -2.09375 C -2.554688 -2.09375 -2.625 -2.066406 -2.6875 -2.015625 C -2.75 -1.972656 -2.78125 -1.914062 -2.78125 -1.84375 C -2.800781 -1.59375 -2.8125 -1.398438 -2.8125 -1.265625 L -2.8125 -1.15625 C -2.8125 -1.007812 -2.800781 -0.921875 -2.78125 -0.890625 C -2.738281 -0.847656 -2.425781 -0.828125 -1.84375 -0.828125 C -1.695312 -0.828125 -1.625 -0.859375 -1.625 -0.921875 L -1.625 -1.328125 C -1.625 -1.492188 -1.628906 -1.609375 -1.640625 -1.671875 C -1.671875 -1.816406 -1.742188 -1.898438 -1.859375 -1.921875 C -1.910156 -1.929688 -1.9375 -1.945312 -1.9375 -1.96875 C -1.9375 -2 -1.929688 -2.015625 -1.921875 -2.015625 C -1.910156 -2.023438 -1.894531 -2.03125 -1.875 -2.03125 L -1.421875 -2 L -1.171875 -2.015625 C -1.097656 -2.015625 -1.0625 -2.003906 -1.0625 -1.984375 C -1.0625 -1.941406 -1.09375 -1.910156 -1.15625 -1.890625 C -1.28125 -1.847656 -1.351562 -1.8125 -1.375 -1.78125 C -1.40625 -1.71875 -1.421875 -1.613281 -1.421875 -1.46875 L -1.421875 -1.171875 L -1.4375 -1.03125 L -1.4375 -1 C -1.4375 -0.882812 -1.40625 -0.828125 -1.34375 -0.828125 L -0.578125 -0.828125 C -0.367188 -0.828125 -0.253906 -0.859375 -0.234375 -0.921875 C -0.210938 -0.992188 -0.203125 -1.054688 -0.203125 -1.109375 C -0.203125 -1.523438 -0.238281 -1.832031 -0.3125 -2.03125 C -0.363281 -2.195312 -0.425781 -2.296875 -0.5 -2.328125 C -0.570312 -2.359375 -0.609375 -2.390625 -0.609375 -2.421875 C -0.609375 -2.453125 -0.582031 -2.46875 -0.53125 -2.46875 C -0.40625 -2.46875 -0.28125 -2.40625 -0.15625 -2.28125 C -0.0390625 -2.164062 0.015625 -2.0625 0.015625 -1.96875 C 0.015625 -1.769531 0.0078125 -1.539062 0 -1.28125 C -0.0078125 -1.03125 -0.015625 -0.875 -0.015625 -0.8125 L 0.015625 -0.234375 C 0.015625 -0.171875 0 -0.140625 -0.03125 -0.140625 L -0.078125 -0.140625 C -0.0976562 -0.140625 -0.109375 -0.15625 -0.109375 -0.1875 C -0.109375 -0.21875 -0.125 -0.265625 -0.15625 -0.328125 C -0.1875 -0.390625 -0.25 -0.429688 -0.34375 -0.453125 C -0.445312 -0.472656 -0.660156 -0.484375 -0.984375 -0.484375 Z M -1.5 -0.484375 "/></g></g></g><g fill="#000000" fill-opacity="1"><g transform="translate(105.714527, 24.432921)"><g><path d="M 0.015625 -0.609375 L 0.015625 -0.25 C 0.015625 -0.1875 -0.00390625 -0.15625 -0.046875 -0.15625 C -0.078125 -0.15625 -0.09375 -0.171875 -0.09375 -0.203125 C -0.101562 -0.242188 -0.125 -0.289062 -0.15625 -0.34375 C -0.195312 -0.394531 -0.257812 -0.429688 -0.34375 -0.453125 C -0.425781 -0.484375 -0.695312 -0.507812 -1.15625 -0.53125 C -1.613281 -0.5625 -1.945312 -0.578125 -2.15625 -0.578125 C -2.375 -0.578125 -2.539062 -0.539062 -2.65625 -0.46875 C -2.78125 -0.40625 -2.847656 -0.296875 -2.859375 -0.140625 C -2.859375 -0.0976562 -2.878906 -0.078125 -2.921875 -0.078125 C -2.941406 -0.078125 -2.957031 -0.0859375 -2.96875 -0.109375 C -2.988281 -0.128906 -3 -0.15625 -3 -0.1875 L -3 -0.5625 C -3 -0.582031 -2.988281 -0.609375 -2.96875 -0.640625 C -2.957031 -0.679688 -2.945312 -0.703125 -2.9375 -0.703125 C -2.925781 -0.710938 -2.90625 -0.726562 -2.875 -0.75 C -2.84375 -0.78125 -2.800781 -0.816406 -2.75 -0.859375 C -2.707031 -0.898438 -2.660156 -0.9375 -2.609375 -0.96875 C -2.117188 -1.351562 -1.519531 -1.867188 -0.8125 -2.515625 C -0.789062 -2.523438 -0.765625 -2.539062 -0.734375 -2.5625 C -0.710938 -2.59375 -0.695312 -2.613281 -0.6875 -2.625 C -0.675781 -2.632812 -0.660156 -2.644531 -0.640625 -2.65625 C -0.628906 -2.675781 -0.625 -2.691406 -0.625 -2.703125 C -0.625 -2.734375 -0.707031 -2.75 -0.875 -2.75 L -1.375 -2.75 L -2.25 -2.734375 L -2.28125 -2.734375 C -2.53125 -2.734375 -2.691406 -2.6875 -2.765625 -2.59375 C -2.796875 -2.5625 -2.8125 -2.535156 -2.8125 -2.515625 C -2.820312 -2.492188 -2.832031 -2.460938 -2.84375 -2.421875 C -2.863281 -2.304688 -2.894531 -2.25 -2.9375 -2.25 C -2.976562 -2.25 -3 -2.273438 -3 -2.328125 L -3 -2.734375 C -3 -2.734375 -3 -2.859375 -3 -3.109375 C -3 -3.160156 -2.992188 -3.191406 -2.984375 -3.203125 C -2.972656 -3.222656 -2.957031 -3.234375 -2.9375 -3.234375 C -2.914062 -3.234375 -2.898438 -3.222656 -2.890625 -3.203125 C -2.878906 -3.179688 -2.863281 -3.144531 -2.84375 -3.09375 C -2.789062 -3 -2.628906 -2.953125 -2.359375 -2.953125 L -2.203125 -2.953125 L -0.109375 -2.90625 L -0.03125 -2.90625 C 0.0390625 -2.90625 0.078125 -2.882812 0.078125 -2.84375 C 0.078125 -2.8125 0.0664062 -2.789062 0.046875 -2.78125 C -1.046875 -1.84375 -1.691406 -1.28125 -1.890625 -1.09375 C -2.097656 -0.914062 -2.203125 -0.816406 -2.203125 -0.796875 C -2.203125 -0.765625 -2.085938 -0.75 -1.859375 -0.75 C -1.628906 -0.75 -1.359375 -0.742188 -1.046875 -0.734375 C -0.734375 -0.722656 -0.566406 -0.71875 -0.546875 -0.71875 C -0.410156 -0.71875 -0.3125 -0.738281 -0.25 -0.78125 C -0.1875 -0.820312 -0.148438 -0.867188 -0.140625 -0.921875 C -0.128906 -0.972656 -0.117188 -1.019531 -0.109375 -1.0625 C -0.0976562 -1.101562 -0.078125 -1.125 -0.046875 -1.125 C -0.0234375 -1.125 -0.0078125 -1.117188 0 -1.109375 C 0.0078125 -1.097656 0.015625 -1.082031 0.015625 -1.0625 Z M 0.015625 -0.609375 "/></g></g></g><g fill="#000000" fill-opacity="1"><g transform="translate(105.714527, 21.059233)"><g><path d="M 0.015625 -0.609375 L 0.015625 -0.25 C 0.015625 -0.1875 -0.00390625 -0.15625 -0.046875 -0.15625 C -0.078125 -0.15625 -0.09375 -0.171875 -0.09375 -0.203125 C -0.101562 -0.242188 -0.125 -0.289062 -0.15625 -0.34375 C -0.195312 -0.394531 -0.257812 -0.429688 -0.34375 -0.453125 C -0.425781 -0.484375 -0.695312 -0.507812 -1.15625 -0.53125 C -1.613281 -0.5625 -1.945312 -0.578125 -2.15625 -0.578125 C -2.375 -0.578125 -2.539062 -0.539062 -2.65625 -0.46875 C -2.78125 -0.40625 -2.847656 -0.296875 -2.859375 -0.140625 C -2.859375 -0.0976562 -2.878906 -0.078125 -2.921875 -0.078125 C -2.941406 -0.078125 -2.957031 -0.0859375 -2.96875 -0.109375 C -2.988281 -0.128906 -3 -0.15625 -3 -0.1875 L -3 -0.5625 C -3 -0.582031 -2.988281 -0.609375 -2.96875 -0.640625 C -2.957031 -0.679688 -2.945312 -0.703125 -2.9375 -0.703125 C -2.925781 -0.710938 -2.90625 -0.726562 -2.875 -0.75 C -2.84375 -0.78125 -2.800781 -0.816406 -2.75 -0.859375 C -2.707031 -0.898438 -2.660156 -0.9375 -2.609375 -0.96875 C -2.117188 -1.351562 -1.519531 -1.867188 -0.8125 -2.515625 C -0.789062 -2.523438 -0.765625 -2.539062 -0.734375 -2.5625 C -0.710938 -2.59375 -0.695312 -2.613281 -0.6875 -2.625 C -0.675781 -2.632812 -0.660156 -2.644531 -0.640625 -2.65625 C -0.628906 -2.675781 -0.625 -2.691406 -0.625 -2.703125 C -0.625 -2.734375 -0.707031 -2.75 -0.875 -2.75 L -1.375 -2.75 L -2.25 -2.734375 L -2.28125 -2.734375 C -2.53125 -2.734375 -2.691406 -2.6875 -2.765625 -2.59375 C -2.796875 -2.5625 -2.8125 -2.535156 -2.8125 -2.515625 C -2.820312 -2.492188 -2.832031 -2.460938 -2.84375 -2.421875 C -2.863281 -2.304688 -2.894531 -2.25 -2.9375 -2.25 C -2.976562 -2.25 -3 -2.273438 -3 -2.328125 L -3 -2.734375 C -3 -2.734375 -3 -2.859375 -3 -3.109375 C -3 -3.160156 -2.992188 -3.191406 -2.984375 -3.203125 C -2.972656 -3.222656 -2.957031 -3.234375 -2.9375 -3.234375 C -2.914062 -3.234375 -2.898438 -3.222656 -2.890625 -3.203125 C -2.878906 -3.179688 -2.863281 -3.144531 -2.84375 -3.09375 C -2.789062 -3 -2.628906 -2.953125 -2.359375 -2.953125 L -2.203125 -2.953125 L -0.109375 -2.90625 L -0.03125 -2.90625 C 0.0390625 -2.90625 0.078125 -2.882812 0.078125 -2.84375 C 0.078125 -2.8125 0.0664062 -2.789062 0.046875 -2.78125 C -1.046875 -1.84375 -1.691406 -1.28125 -1.890625 -1.09375 C -2.097656 -0.914062 -2.203125 -0.816406 -2.203125 -0.796875 C -2.203125 -0.765625 -2.085938 -0.75 -1.859375 -0.75 C -1.628906 -0.75 -1.359375 -0.742188 -1.046875 -0.734375 C -0.734375 -0.722656 -0.566406 -0.71875 -0.546875 -0.71875 C -0.410156 -0.71875 -0.3125 -0.738281 -0.25 -0.78125 C -0.1875 -0.820312 -0.148438 -0.867188 -0.140625 -0.921875 C -0.128906 -0.972656 -0.117188 -1.019531 -0.109375 -1.0625 C -0.0976562 -1.101562 -0.078125 -1.125 -0.046875 -1.125 C -0.0234375 -1.125 -0.0078125 -1.117188 0 -1.109375 C 0.0078125 -1.097656 0.015625 -1.082031 0.015625 -1.0625 Z M 0.015625 -0.609375 "/></g></g></g><g fill="#000000" fill-opacity="1"><g transform="translate(105.714527, 17.685546)"><g><path d="M -0.375 -1.375 L -1.234375 -1.390625 C -1.359375 -1.390625 -1.472656 -1.351562 -1.578125 -1.28125 C -1.691406 -1.207031 -1.828125 -1.113281 -1.984375 -1 C -2.148438 -0.894531 -2.296875 -0.800781 -2.421875 -0.71875 C -2.546875 -0.632812 -2.640625 -0.554688 -2.703125 -0.484375 C -2.773438 -0.410156 -2.816406 -0.351562 -2.828125 -0.3125 C -2.847656 -0.28125 -2.859375 -0.234375 -2.859375 -0.171875 C -2.859375 -0.109375 -2.875 -0.078125 -2.90625 -0.078125 C -2.9375 -0.078125 -2.957031 -0.09375 -2.96875 -0.125 C -2.976562 -0.164062 -2.984375 -0.238281 -2.984375 -0.34375 L -2.984375 -0.953125 C -2.984375 -1.097656 -2.96875 -1.171875 -2.9375 -1.171875 C -2.90625 -1.171875 -2.875 -1.140625 -2.84375 -1.078125 C -2.820312 -1.015625 -2.796875 -0.984375 -2.765625 -0.984375 C -2.742188 -0.984375 -2.710938 -0.992188 -2.671875 -1.015625 C -2.628906 -1.035156 -2.59375 -1.050781 -2.5625 -1.0625 C -2.53125 -1.082031 -2.488281 -1.109375 -2.4375 -1.140625 C -2.382812 -1.179688 -2.316406 -1.226562 -2.234375 -1.28125 C -2.148438 -1.332031 -2.039062 -1.410156 -1.90625 -1.515625 C -1.769531 -1.617188 -1.703125 -1.675781 -1.703125 -1.6875 C -1.703125 -1.707031 -1.71875 -1.726562 -1.75 -1.75 C -1.78125 -1.78125 -1.832031 -1.816406 -1.90625 -1.859375 C -1.988281 -1.898438 -2.039062 -1.929688 -2.0625 -1.953125 C -2.09375 -1.972656 -2.128906 -2 -2.171875 -2.03125 C -2.222656 -2.0625 -2.257812 -2.082031 -2.28125 -2.09375 C -2.300781 -2.113281 -2.332031 -2.132812 -2.375 -2.15625 C -2.414062 -2.1875 -2.445312 -2.207031 -2.46875 -2.21875 C -2.488281 -2.226562 -2.515625 -2.238281 -2.546875 -2.25 C -2.597656 -2.28125 -2.640625 -2.296875 -2.671875 -2.296875 C -2.773438 -2.296875 -2.835938 -2.226562 -2.859375 -2.09375 C -2.859375 -2.03125 -2.863281 -1.992188 -2.875 -1.984375 C -2.894531 -1.984375 -2.914062 -1.984375 -2.9375 -1.984375 C -2.96875 -1.984375 -2.984375 -2.019531 -2.984375 -2.09375 L -2.984375 -2.71875 C -2.984375 -2.863281 -2.957031 -2.9375 -2.90625 -2.9375 C -2.894531 -2.9375 -2.882812 -2.925781 -2.875 -2.90625 C -2.875 -2.882812 -2.863281 -2.859375 -2.84375 -2.828125 C -2.832031 -2.796875 -2.816406 -2.769531 -2.796875 -2.75 C -2.703125 -2.632812 -2.484375 -2.460938 -2.140625 -2.234375 C -1.804688 -2.015625 -1.613281 -1.882812 -1.5625 -1.84375 C -1.519531 -1.800781 -1.460938 -1.773438 -1.390625 -1.765625 C -1.328125 -1.753906 -1.210938 -1.75 -1.046875 -1.75 L -0.46875 -1.75 C -0.375 -1.75 -0.296875 -1.765625 -0.234375 -1.796875 C -0.179688 -1.835938 -0.148438 -1.867188 -0.140625 -1.890625 C -0.128906 -1.921875 -0.125 -1.953125 -0.125 -1.984375 L -0.125 -2.0625 C -0.125 -2.082031 -0.117188 -2.097656 -0.109375 -2.109375 C -0.0976562 -2.117188 -0.0820312 -2.125 -0.0625 -2.125 C -0.0390625 -2.125 -0.0234375 -2.117188 -0.015625 -2.109375 C -0.00390625 -2.097656 0 -2.070312 0 -2.03125 L 0 -1.609375 L 0.015625 -1.140625 C 0.015625 -1.054688 0 -1.015625 -0.03125 -1.015625 C -0.0625 -1.015625 -0.0820312 -1.019531 -0.09375 -1.03125 C -0.101562 -1.050781 -0.109375 -1.078125 -0.109375 -1.109375 C -0.109375 -1.148438 -0.113281 -1.179688 -0.125 -1.203125 C -0.15625 -1.316406 -0.238281 -1.375 -0.375 -1.375 Z M -0.375 -1.375 "/></g></g></g></svg>