<svg xmlns="http://www.w3.org/2000/svg" xmlns:xlink="http://www.w3.org/1999/xlink" width="300" zoomAndPan="magnify" viewBox="0 0 224.87999 225" height="300" preserveAspectRatio="xMidYMid meet" version="1.0"><defs><g/><clipPath id="d3403f65e1"><path d="M 0 0.0585938 L 224.761719 0.0585938 L 224.761719 224.9375 L 0 224.9375 Z M 0 0.0585938 " clip-rule="nonzero"/></clipPath><clipPath id="53474a9dfc"><path d="M 165.777344 81.722656 L 224.761719 81.722656 L 224.761719 144 L 165.777344 144 Z M 165.777344 81.722656 " clip-rule="nonzero"/></clipPath><clipPath id="7cbeeeb53d"><path d="M 195.328125 81.722656 C 179.007812 81.722656 165.777344 95.644531 165.777344 112.816406 C 165.777344 129.988281 179.007812 143.910156 195.328125 143.910156 C 211.648438 143.910156 224.878906 129.988281 224.878906 112.816406 C 224.878906 95.644531 211.648438 81.722656 195.328125 81.722656 Z M 195.328125 81.722656 " clip-rule="nonzero"/></clipPath></defs><g clip-path="url(#d3403f65e1)"><path fill="#ffffff" d="M 0 0.0585938 L 224.878906 0.0585938 L 224.878906 224.941406 L 0 224.941406 Z M 0 0.0585938 " fill-opacity="1" fill-rule="nonzero"/><path fill="#ffffff" d="M 0 0.0585938 L 224.878906 0.0585938 L 224.878906 224.941406 L 0 224.941406 Z M 0 0.0585938 " fill-opacity="1" fill-rule="nonzero"/></g><g clip-path="url(#53474a9dfc)"><g clip-path="url(#7cbeeeb53d)"><path fill="#ffffff" d="M 165.777344 81.722656 L 224.878906 81.722656 L 224.878906 143.824219 L 165.777344 143.824219 Z M 165.777344 81.722656 " fill-opacity="1" fill-rule="nonzero"/></g></g><g fill="#000000" fill-opacity="1"><g transform="translate(16.744941, 128.254261)"><g><path d="M 14.328125 -33.203125 C 13.171875 -33.128906 12.328125 -32.992188 11.796875 -32.796875 C 11.265625 -32.609375 10.898438 -32.238281 10.703125 -31.6875 C 10.515625 -31.144531 10.421875 -30.265625 10.421875 -29.046875 L 10.421875 -5.109375 C 10.421875 -3.890625 10.515625 -3.003906 10.703125 -2.453125 C 10.898438 -1.910156 11.265625 -1.550781 11.796875 -1.375 C 12.328125 -1.195312 13.171875 -1.109375 14.328125 -1.109375 L 17.859375 -1.109375 C 19.847656 -1.109375 21.363281 -1.390625 22.40625 -1.953125 C 23.457031 -2.515625 24.222656 -3.421875 24.703125 -4.671875 C 25.179688 -5.929688 25.535156 -7.75 25.765625 -10.125 L 26.875 -10.125 C 26.78125 -9.132812 26.734375 -7.816406 26.734375 -6.171875 C 26.734375 -4.335938 26.84375 -2.28125 27.0625 0 C 24.875 -0.09375 21.191406 -0.140625 16.015625 -0.140625 C 9.835938 -0.140625 5.175781 -0.09375 2.03125 0 L 2.03125 -0.96875 C 3.1875 -1.03125 4.03125 -1.15625 4.5625 -1.34375 C 5.09375 -1.539062 5.453125 -1.910156 5.640625 -2.453125 C 5.835938 -3.003906 5.9375 -3.890625 5.9375 -5.109375 L 5.9375 -29.046875 C 5.9375 -30.265625 5.835938 -31.144531 5.640625 -31.6875 C 5.453125 -32.238281 5.09375 -32.609375 4.5625 -32.796875 C 4.03125 -32.992188 3.1875 -33.128906 2.03125 -33.203125 L 2.03125 -34.15625 C 3.375 -34.0625 5.429688 -34.015625 8.203125 -34.015625 C 10.773438 -34.015625 12.816406 -34.0625 14.328125 -34.15625 Z M 14.328125 -33.203125 "/></g></g></g><g fill="#000000" fill-opacity="1"><g transform="translate(45.113227, 128.254261)"><g><path d="M 14.328125 -33.203125 C 13.171875 -33.128906 12.328125 -32.992188 11.796875 -32.796875 C 11.265625 -32.609375 10.898438 -32.238281 10.703125 -31.6875 C 10.515625 -31.144531 10.421875 -30.265625 10.421875 -29.046875 L 10.421875 -5.109375 C 10.421875 -3.890625 10.515625 -3.003906 10.703125 -2.453125 C 10.898438 -1.910156 11.265625 -1.539062 11.796875 -1.34375 C 12.328125 -1.15625 13.171875 -1.03125 14.328125 -0.96875 L 14.328125 0 C 12.847656 -0.09375 10.804688 -0.140625 8.203125 -0.140625 C 5.429688 -0.140625 3.375 -0.09375 2.03125 0 L 2.03125 -0.96875 C 3.1875 -1.03125 4.03125 -1.15625 4.5625 -1.34375 C 5.09375 -1.539062 5.453125 -1.910156 5.640625 -2.453125 C 5.835938 -3.003906 5.9375 -3.890625 5.9375 -5.109375 L 5.9375 -29.046875 C 5.9375 -30.265625 5.835938 -31.144531 5.640625 -31.6875 C 5.453125 -32.238281 5.09375 -32.609375 4.5625 -32.796875 C 4.03125 -32.992188 3.1875 -33.128906 2.03125 -33.203125 L 2.03125 -34.15625 C 3.375 -34.0625 5.429688 -34.015625 8.203125 -34.015625 C 10.773438 -34.015625 12.816406 -34.0625 14.328125 -34.15625 Z M 14.328125 -33.203125 "/></g></g></g><g fill="#000000" fill-opacity="1"><g transform="translate(61.468413, 128.254261)"><g><path d="M 26.109375 -34.15625 C 25.878906 -31.875 25.765625 -29.816406 25.765625 -27.984375 C 25.765625 -26.378906 25.8125 -25.0625 25.90625 -24.03125 L 24.796875 -24.03125 C 24.546875 -26.507812 24.222656 -28.347656 23.828125 -29.546875 C 23.441406 -30.753906 22.765625 -31.640625 21.796875 -32.203125 C 20.835938 -32.765625 19.363281 -33.046875 17.375 -33.046875 L 14.328125 -33.046875 C 13.171875 -33.046875 12.328125 -32.957031 11.796875 -32.78125 C 11.265625 -32.601562 10.898438 -32.238281 10.703125 -31.6875 C 10.515625 -31.144531 10.421875 -30.265625 10.421875 -29.046875 L 10.421875 -17.171875 L 13.9375 -17.171875 C 15.070312 -17.171875 15.941406 -17.4375 16.546875 -17.96875 C 17.160156 -18.5 17.570312 -19.125 17.78125 -19.84375 C 17.988281 -20.570312 18.15625 -21.484375 18.28125 -22.578125 L 18.4375 -23.546875 L 19.546875 -23.546875 C 19.441406 -22.191406 19.390625 -20.679688 19.390625 -19.015625 L 19.390625 -16.6875 C 19.390625 -15.050781 19.488281 -12.769531 19.6875 -9.84375 L 18.578125 -9.84375 C 18.546875 -10.070312 18.445312 -10.851562 18.28125 -12.1875 C 18.125 -13.519531 17.679688 -14.523438 16.953125 -15.203125 C 16.234375 -15.878906 15.226562 -16.21875 13.9375 -16.21875 L 10.421875 -16.21875 L 10.421875 -5.109375 C 10.421875 -3.890625 10.546875 -3.003906 10.796875 -2.453125 C 11.054688 -1.910156 11.507812 -1.539062 12.15625 -1.34375 C 12.800781 -1.15625 13.847656 -1.03125 15.296875 -0.96875 L 15.296875 0 C 13.617188 -0.09375 11.253906 -0.140625 8.203125 -0.140625 C 5.429688 -0.140625 3.375 -0.09375 2.03125 0 L 2.03125 -0.96875 C 3.1875 -1.03125 4.03125 -1.15625 4.5625 -1.34375 C 5.09375 -1.539062 5.453125 -1.910156 5.640625 -2.453125 C 5.835938 -3.003906 5.9375 -3.890625 5.9375 -5.109375 L 5.9375 -29.046875 C 5.9375 -30.265625 5.835938 -31.144531 5.640625 -31.6875 C 5.453125 -32.238281 5.09375 -32.609375 4.5625 -32.796875 C 4.03125 -32.992188 3.1875 -33.128906 2.03125 -33.203125 L 2.03125 -34.15625 C 5.175781 -34.0625 9.835938 -34.015625 16.015625 -34.015625 C 20.742188 -34.015625 24.109375 -34.0625 26.109375 -34.15625 Z M 26.109375 -34.15625 "/></g></g></g><g fill="#000000" fill-opacity="1"><g transform="translate(88.920037, 128.254261)"><g><path d="M 26.734375 -6.171875 C 26.734375 -4.335938 26.84375 -2.28125 27.0625 0 C 24.875 -0.09375 21.191406 -0.140625 16.015625 -0.140625 C 9.835938 -0.140625 5.175781 -0.09375 2.03125 0 L 2.03125 -0.96875 C 3.1875 -1.03125 4.03125 -1.15625 4.5625 -1.34375 C 5.09375 -1.539062 5.453125 -1.910156 5.640625 -2.453125 C 5.835938 -3.003906 5.9375 -3.890625 5.9375 -5.109375 L 5.9375 -29.046875 C 5.9375 -30.265625 5.835938 -31.144531 5.640625 -31.6875 C 5.453125 -32.238281 5.09375 -32.609375 4.5625 -32.796875 C 4.03125 -32.992188 3.1875 -33.128906 2.03125 -33.203125 L 2.03125 -34.15625 C 5.175781 -34.0625 9.835938 -34.015625 16.015625 -34.015625 C 20.742188 -34.015625 24.109375 -34.0625 26.109375 -34.15625 C 25.878906 -32.03125 25.765625 -30.132812 25.765625 -28.46875 C 25.765625 -27.207031 25.8125 -26.207031 25.90625 -25.46875 L 24.796875 -25.46875 C 24.578125 -27.5625 24.289062 -29.113281 23.9375 -30.125 C 23.582031 -31.144531 22.984375 -31.882812 22.140625 -32.34375 C 21.304688 -32.8125 20.035156 -33.046875 18.328125 -33.046875 L 14.328125 -33.046875 C 13.171875 -33.046875 12.328125 -32.957031 11.796875 -32.78125 C 11.265625 -32.601562 10.898438 -32.238281 10.703125 -31.6875 C 10.515625 -31.144531 10.421875 -30.265625 10.421875 -29.046875 L 10.421875 -17.65625 L 13.609375 -17.65625 C 14.734375 -17.65625 15.597656 -17.921875 16.203125 -18.453125 C 16.816406 -18.984375 17.226562 -19.609375 17.4375 -20.328125 C 17.644531 -21.054688 17.816406 -21.96875 17.953125 -23.0625 L 18.09375 -24.03125 L 19.203125 -24.03125 C 19.109375 -22.675781 19.0625 -21.164062 19.0625 -19.5 L 19.0625 -17.171875 C 19.0625 -15.535156 19.15625 -13.253906 19.34375 -10.328125 L 18.234375 -10.328125 C 18.203125 -10.546875 18.101562 -11.320312 17.9375 -12.65625 C 17.78125 -14 17.335938 -15.003906 16.609375 -15.671875 C 15.890625 -16.347656 14.890625 -16.6875 13.609375 -16.6875 L 10.421875 -16.6875 L 10.421875 -5.109375 C 10.421875 -3.890625 10.515625 -3.003906 10.703125 -2.453125 C 10.898438 -1.910156 11.265625 -1.550781 11.796875 -1.375 C 12.328125 -1.195312 13.171875 -1.109375 14.328125 -1.109375 L 17.859375 -1.109375 C 19.847656 -1.109375 21.363281 -1.375 22.40625 -1.90625 C 23.457031 -2.4375 24.222656 -3.285156 24.703125 -4.453125 C 25.179688 -5.628906 25.535156 -7.363281 25.765625 -9.65625 L 26.875 -9.65625 C 26.78125 -8.78125 26.734375 -7.617188 26.734375 -6.171875 Z M 26.734375 -6.171875 "/></g></g></g><g fill="#000000" fill-opacity="1"><g transform="translate(118.30148, 128.254261)"><g><path d="M 14.328125 -33.203125 C 13.171875 -33.128906 12.328125 -32.992188 11.796875 -32.796875 C 11.265625 -32.609375 10.898438 -32.238281 10.703125 -31.6875 C 10.515625 -31.144531 10.421875 -30.265625 10.421875 -29.046875 L 10.421875 -5.109375 C 10.421875 -3.890625 10.515625 -3.003906 10.703125 -2.453125 C 10.898438 -1.910156 11.265625 -1.550781 11.796875 -1.375 C 12.328125 -1.195312 13.171875 -1.109375 14.328125 -1.109375 L 17.859375 -1.109375 C 19.847656 -1.109375 21.363281 -1.390625 22.40625 -1.953125 C 23.457031 -2.515625 24.222656 -3.421875 24.703125 -4.671875 C 25.179688 -5.929688 25.535156 -7.75 25.765625 -10.125 L 26.875 -10.125 C 26.78125 -9.132812 26.734375 -7.816406 26.734375 -6.171875 C 26.734375 -4.335938 26.84375 -2.28125 27.0625 0 C 24.875 -0.09375 21.191406 -0.140625 16.015625 -0.140625 C 9.835938 -0.140625 5.175781 -0.09375 2.03125 0 L 2.03125 -0.96875 C 3.1875 -1.03125 4.03125 -1.15625 4.5625 -1.34375 C 5.09375 -1.539062 5.453125 -1.910156 5.640625 -2.453125 C 5.835938 -3.003906 5.9375 -3.890625 5.9375 -5.109375 L 5.9375 -29.046875 C 5.9375 -30.265625 5.835938 -31.144531 5.640625 -31.6875 C 5.453125 -32.238281 5.09375 -32.609375 4.5625 -32.796875 C 4.03125 -32.992188 3.1875 -33.128906 2.03125 -33.203125 L 2.03125 -34.15625 C 3.375 -34.0625 5.429688 -34.015625 8.203125 -34.015625 C 10.773438 -34.015625 12.816406 -34.0625 14.328125 -34.15625 Z M 14.328125 -33.203125 "/></g></g></g><g fill="#000000" fill-opacity="1"><g transform="translate(146.669765, 128.254261)"><g><path d="M 13.21875 -25.53125 C 16.5 -25.53125 19.144531 -24.441406 21.15625 -22.265625 C 23.164062 -20.097656 24.171875 -16.8125 24.171875 -12.40625 C 24.171875 -8 23.164062 -4.71875 21.15625 -2.5625 C 19.144531 -0.40625 16.5 0.671875 13.21875 0.671875 C 9.9375 0.671875 7.289062 -0.40625 5.28125 -2.5625 C 3.269531 -4.71875 2.265625 -8 2.265625 -12.40625 C 2.265625 -16.8125 3.269531 -20.097656 5.28125 -22.265625 C 7.289062 -24.441406 9.9375 -25.53125 13.21875 -25.53125 Z M 13.21875 -24.5625 C 11.289062 -24.5625 9.765625 -23.570312 8.640625 -21.59375 C 7.515625 -19.613281 6.953125 -16.550781 6.953125 -12.40625 C 6.953125 -8.25 7.515625 -5.191406 8.640625 -3.234375 C 9.765625 -1.273438 11.289062 -0.296875 13.21875 -0.296875 C 15.144531 -0.296875 16.671875 -1.273438 17.796875 -3.234375 C 18.929688 -5.191406 19.5 -8.25 19.5 -12.40625 C 19.5 -16.550781 18.929688 -19.613281 17.796875 -21.59375 C 16.671875 -23.570312 15.144531 -24.5625 13.21875 -24.5625 Z M 13.21875 -24.5625 "/></g></g></g><g fill="#000000" fill-opacity="1"><g transform="translate(173.108232, 128.254261)"><g><path d="M 22.71875 -20.5 C 22.144531 -20.5 21.65625 -20.691406 21.25 -21.078125 C 20.851562 -21.472656 20.65625 -22.039062 20.65625 -22.78125 C 20.65625 -23.414062 20.816406 -24.15625 21.140625 -25 C 20.296875 -24.644531 19.632812 -24.25 19.15625 -23.8125 C 18.675781 -23.375 18.242188 -22.832031 17.859375 -22.1875 C 18.597656 -21.0625 18.96875 -19.632812 18.96875 -17.90625 C 18.96875 -15.363281 18.191406 -13.457031 16.640625 -12.1875 C 15.097656 -10.914062 13.054688 -10.28125 10.515625 -10.28125 L 10.46875 -10.28125 C 9.40625 -9.664062 8.597656 -9.097656 8.046875 -8.578125 C 7.503906 -8.066406 7.234375 -7.488281 7.234375 -6.84375 C 7.234375 -5.820312 8.003906 -5.3125 9.546875 -5.3125 L 15.578125 -5.3125 C 17.765625 -5.3125 19.570312 -4.832031 21 -3.875 C 22.4375 -2.925781 23.15625 -1.503906 23.15625 0.390625 C 23.15625 1.929688 22.65625 3.359375 21.65625 4.671875 C 20.664062 5.992188 19.203125 7.054688 17.265625 7.859375 C 15.335938 8.671875 13.007812 9.078125 10.28125 9.078125 C 7.476562 9.078125 5.132812 8.648438 3.25 7.796875 C 1.375 6.941406 0.4375 5.675781 0.4375 4 C 0.4375 2.90625 0.878906 1.957031 1.765625 1.15625 C 2.648438 0.351562 3.878906 -0.269531 5.453125 -0.71875 L 5.734375 0.046875 C 5.035156 0.273438 4.472656 0.722656 4.046875 1.390625 C 3.628906 2.066406 3.421875 2.828125 3.421875 3.671875 C 3.421875 5.148438 4.085938 6.28125 5.421875 7.0625 C 6.765625 7.851562 8.5625 8.25 10.8125 8.25 C 13.28125 8.25 15.398438 7.773438 17.171875 6.828125 C 18.941406 5.878906 19.828125 4.40625 19.828125 2.40625 C 19.828125 1.25 19.414062 0.351562 18.59375 -0.28125 C 17.78125 -0.925781 16.328125 -1.25 14.234375 -1.25 L 10.65625 -1.25 C 8.757812 -1.25 7.238281 -1.488281 6.09375 -1.96875 C 4.957031 -2.457031 4.390625 -3.425781 4.390625 -4.875 C 4.390625 -5.875 4.75 -6.820312 5.46875 -7.71875 C 6.195312 -8.625 7.398438 -9.507812 9.078125 -10.375 C 6.953125 -10.601562 5.253906 -11.34375 3.984375 -12.59375 C 2.710938 -13.84375 2.078125 -15.613281 2.078125 -17.90625 C 2.078125 -20.445312 2.847656 -22.351562 4.390625 -23.625 C 5.929688 -24.894531 7.972656 -25.53125 10.515625 -25.53125 C 13.535156 -25.53125 15.769531 -24.691406 17.21875 -23.015625 C 17.832031 -23.878906 18.601562 -24.59375 19.53125 -25.15625 C 20.46875 -25.71875 21.40625 -26 22.34375 -26 C 23.175781 -26 23.847656 -25.757812 24.359375 -25.28125 C 24.878906 -24.800781 25.140625 -24.109375 25.140625 -23.203125 C 25.140625 -22.304688 24.890625 -21.628906 24.390625 -21.171875 C 23.890625 -20.722656 23.332031 -20.5 22.71875 -20.5 Z M 10.515625 -11.140625 C 11.804688 -11.140625 12.78125 -11.644531 13.4375 -12.65625 C 14.09375 -13.675781 14.421875 -15.425781 14.421875 -17.90625 C 14.421875 -20.375 14.09375 -22.113281 13.4375 -23.125 C 12.78125 -24.144531 11.804688 -24.65625 10.515625 -24.65625 C 9.234375 -24.65625 8.257812 -24.144531 7.59375 -23.125 C 6.9375 -22.113281 6.609375 -20.375 6.609375 -17.90625 C 6.609375 -15.425781 6.9375 -13.675781 7.59375 -12.65625 C 8.257812 -11.644531 9.234375 -11.140625 10.515625 -11.140625 Z M 10.515625 -11.140625 "/></g></g></g><g fill="#000000" fill-opacity="1"><g transform="translate(212.255466, 130.220993)"><g><path d="M -1.234375 -1.71875 L -0.578125 -1.71875 C 0.0546875 -1.71875 0.582031 -1.539062 1 -1.1875 C 1.414062 -0.84375 1.625 -0.429688 1.625 0.046875 C 1.625 0.265625 1.519531 0.375 1.3125 0.375 C 1.21875 0.375 1.113281 0.34375 1 0.28125 C 0.894531 0.21875 0.84375 0.164062 0.84375 0.125 C 0.84375 0.0820312 0.890625 0.0195312 0.984375 -0.0625 C 1.078125 -0.144531 1.125 -0.25 1.125 -0.375 C 1.125 -0.6875 0.90625 -0.878906 0.46875 -0.953125 C 0.0820312 -1.023438 -0.195312 -1.0625 -0.375 -1.0625 L -1.609375 -1.0625 C -1.710938 -1.0625 -1.804688 -1.054688 -1.890625 -1.046875 C -1.984375 -1.046875 -2.078125 -1.046875 -2.171875 -1.046875 C -2.460938 -1.035156 -3.015625 -1.03125 -3.828125 -1.03125 C -4.640625 -1.03125 -5.128906 -1.019531 -5.296875 -1 C -5.460938 -0.976562 -5.578125 -0.898438 -5.640625 -0.765625 C -5.710938 -0.640625 -5.75 -0.507812 -5.75 -0.375 C -5.757812 -0.238281 -5.8125 -0.171875 -5.90625 -0.171875 C -6 -0.171875 -6.046875 -0.253906 -6.046875 -0.421875 C -6.046875 -0.472656 -6.035156 -0.597656 -6.015625 -0.796875 C -6.003906 -1.003906 -6 -1.195312 -6 -1.375 C -6 -1.375 -6 -1.601562 -6 -2.0625 C -6 -2.21875 -5.960938 -2.296875 -5.890625 -2.296875 C -5.835938 -2.296875 -5.757812 -2.164062 -5.65625 -1.90625 C -5.613281 -1.789062 -5.421875 -1.734375 -5.078125 -1.734375 L -4.6875 -1.734375 Z M -1.234375 -1.71875 "/></g></g></g><g fill="#000000" fill-opacity="1"><g transform="translate(212.255466, 127.759346)"><g><path d="M -3.015625 -0.984375 L -4.484375 -1.015625 C -4.628906 -1.015625 -4.882812 -1.007812 -5.25 -1 C -5.414062 -0.988281 -5.539062 -0.914062 -5.625 -0.78125 C -5.71875 -0.644531 -5.769531 -0.488281 -5.78125 -0.3125 C -5.78125 -0.21875 -5.832031 -0.171875 -5.9375 -0.171875 C -6.007812 -0.171875 -6.046875 -0.25 -6.046875 -0.40625 L -6.03125 -0.640625 L -5.984375 -2.703125 L -6.03125 -4.40625 C -6.03125 -4.507812 -5.960938 -4.5625 -5.828125 -4.5625 C -5.796875 -4.5625 -5.679688 -4.546875 -5.484375 -4.515625 C -5.296875 -4.484375 -5.148438 -4.46875 -5.046875 -4.46875 C -4.867188 -4.46875 -4.78125 -4.421875 -4.78125 -4.328125 C -4.78125 -4.242188 -4.847656 -4.203125 -4.984375 -4.203125 C -5.117188 -4.203125 -5.25 -4.148438 -5.375 -4.046875 C -5.5 -3.953125 -5.5625 -3.835938 -5.5625 -3.703125 C -5.601562 -3.191406 -5.625 -2.800781 -5.625 -2.53125 L -5.625 -2.3125 C -5.625 -2.007812 -5.601562 -1.835938 -5.5625 -1.796875 C -5.488281 -1.710938 -4.863281 -1.671875 -3.6875 -1.671875 C -3.40625 -1.671875 -3.265625 -1.722656 -3.265625 -1.828125 L -3.265625 -2.671875 C -3.265625 -3.003906 -3.273438 -3.226562 -3.296875 -3.34375 C -3.347656 -3.632812 -3.492188 -3.800781 -3.734375 -3.84375 C -3.828125 -3.863281 -3.875 -3.898438 -3.875 -3.953125 C -3.875 -4.003906 -3.863281 -4.035156 -3.84375 -4.046875 C -3.832031 -4.066406 -3.796875 -4.078125 -3.734375 -4.078125 L -2.84375 -4 L -2.328125 -4.03125 C -2.191406 -4.03125 -2.125 -4.007812 -2.125 -3.96875 C -2.125 -3.882812 -2.191406 -3.820312 -2.328125 -3.78125 C -2.566406 -3.707031 -2.703125 -3.640625 -2.734375 -3.578125 C -2.816406 -3.453125 -2.859375 -3.242188 -2.859375 -2.953125 L -2.859375 -2.34375 L -2.875 -2.0625 L -2.875 -2.015625 C -2.875 -1.773438 -2.816406 -1.65625 -2.703125 -1.65625 L -1.484375 -1.640625 L -1.140625 -1.640625 C -0.734375 -1.640625 -0.507812 -1.707031 -0.46875 -1.84375 C -0.425781 -1.988281 -0.40625 -2.113281 -0.40625 -2.21875 C -0.40625 -3.0625 -0.472656 -3.675781 -0.609375 -4.0625 C -0.734375 -4.394531 -0.863281 -4.597656 -1 -4.671875 C -1.144531 -4.734375 -1.21875 -4.796875 -1.21875 -4.859375 C -1.21875 -4.921875 -1.164062 -4.953125 -1.0625 -4.953125 C -0.820312 -4.953125 -0.578125 -4.828125 -0.328125 -4.578125 C -0.078125 -4.335938 0.046875 -4.128906 0.046875 -3.953125 C 0.046875 -3.546875 0.03125 -3.085938 0 -2.578125 C -0.03125 -2.066406 -0.046875 -1.75 -0.046875 -1.625 L 0.03125 -0.46875 C 0.03125 -0.34375 0.00390625 -0.28125 -0.046875 -0.28125 L -0.15625 -0.28125 C -0.1875 -0.28125 -0.207031 -0.3125 -0.21875 -0.375 C -0.226562 -0.4375 -0.265625 -0.53125 -0.328125 -0.65625 C -0.390625 -0.789062 -0.519531 -0.878906 -0.71875 -0.921875 C -0.914062 -0.960938 -1.328125 -0.984375 -1.953125 -0.984375 Z M -3.015625 -0.984375 "/></g></g></g><g fill="#000000" fill-opacity="1"><g transform="translate(212.255466, 122.632341)"><g><path d="M 0.015625 -1.21875 L 0.03125 -0.5 C 0.03125 -0.375 -0.015625 -0.3125 -0.109375 -0.3125 C -0.148438 -0.3125 -0.175781 -0.347656 -0.1875 -0.421875 C -0.207031 -0.492188 -0.253906 -0.582031 -0.328125 -0.6875 C -0.398438 -0.800781 -0.519531 -0.878906 -0.6875 -0.921875 C -0.851562 -0.972656 -1.394531 -1.019531 -2.3125 -1.0625 C -3.238281 -1.113281 -3.910156 -1.140625 -4.328125 -1.140625 C -4.753906 -1.140625 -5.085938 -1.070312 -5.328125 -0.9375 C -5.566406 -0.800781 -5.703125 -0.582031 -5.734375 -0.28125 C -5.742188 -0.207031 -5.785156 -0.171875 -5.859375 -0.171875 C -5.890625 -0.171875 -5.921875 -0.1875 -5.953125 -0.21875 C -5.984375 -0.257812 -6 -0.3125 -6 -0.375 L -6 -0.703125 L -6.015625 -1.125 C -6.015625 -1.175781 -6 -1.234375 -5.96875 -1.296875 C -5.9375 -1.367188 -5.90625 -1.410156 -5.875 -1.421875 C -5.851562 -1.429688 -5.8125 -1.460938 -5.75 -1.515625 C -5.695312 -1.566406 -5.617188 -1.632812 -5.515625 -1.71875 C -5.421875 -1.800781 -5.332031 -1.875 -5.25 -1.9375 C -4.238281 -2.707031 -3.03125 -3.738281 -1.625 -5.03125 C -1.582031 -5.0625 -1.535156 -5.097656 -1.484375 -5.140625 C -1.429688 -5.191406 -1.390625 -5.226562 -1.359375 -5.25 C -1.335938 -5.269531 -1.316406 -5.289062 -1.296875 -5.3125 C -1.253906 -5.351562 -1.234375 -5.382812 -1.234375 -5.40625 C -1.234375 -5.46875 -1.410156 -5.5 -1.765625 -5.5 L -2.75 -5.5 L -4.5 -5.484375 L -4.5625 -5.484375 C -5.082031 -5.484375 -5.410156 -5.390625 -5.546875 -5.203125 C -5.597656 -5.140625 -5.628906 -5.082031 -5.640625 -5.03125 C -5.660156 -4.988281 -5.675781 -4.925781 -5.6875 -4.84375 C -5.738281 -4.613281 -5.800781 -4.5 -5.875 -4.5 C -5.957031 -4.5 -6 -4.550781 -6 -4.65625 L -6 -5.46875 C -6 -5.46875 -6.003906 -5.722656 -6.015625 -6.234375 C -6.015625 -6.328125 -6.003906 -6.390625 -5.984375 -6.421875 C -5.960938 -6.460938 -5.929688 -6.484375 -5.890625 -6.484375 C -5.859375 -6.484375 -5.828125 -6.46875 -5.796875 -6.4375 C -5.773438 -6.382812 -5.742188 -6.300781 -5.703125 -6.1875 C -5.597656 -6 -5.28125 -5.90625 -4.75 -5.90625 L -4.421875 -5.90625 L -0.21875 -5.8125 L -0.046875 -5.8125 C 0.078125 -5.8125 0.140625 -5.769531 0.140625 -5.6875 C 0.140625 -5.632812 0.117188 -5.59375 0.078125 -5.5625 C -2.097656 -3.675781 -3.390625 -2.550781 -3.796875 -2.1875 C -4.203125 -1.820312 -4.40625 -1.625 -4.40625 -1.59375 C -4.40625 -1.53125 -4.175781 -1.5 -3.71875 -1.5 C -3.257812 -1.5 -2.71875 -1.488281 -2.09375 -1.46875 C -1.476562 -1.445312 -1.144531 -1.4375 -1.09375 -1.4375 C -0.832031 -1.4375 -0.632812 -1.476562 -0.5 -1.5625 C -0.375 -1.65625 -0.300781 -1.75 -0.28125 -1.84375 C -0.257812 -1.945312 -0.238281 -2.039062 -0.21875 -2.125 C -0.195312 -2.21875 -0.15625 -2.265625 -0.09375 -2.265625 C -0.0390625 -2.265625 -0.0078125 -2.253906 0 -2.234375 C 0.0195312 -2.210938 0.03125 -2.175781 0.03125 -2.125 Z M 0.015625 -1.21875 "/></g></g></g><g fill="#000000" fill-opacity="1"><g transform="translate(212.255466, 115.858592)"><g><path d="M 0.015625 -1.21875 L 0.03125 -0.5 C 0.03125 -0.375 -0.015625 -0.3125 -0.109375 -0.3125 C -0.148438 -0.3125 -0.175781 -0.347656 -0.1875 -0.421875 C -0.207031 -0.492188 -0.253906 -0.582031 -0.328125 -0.6875 C -0.398438 -0.800781 -0.519531 -0.878906 -0.6875 -0.921875 C -0.851562 -0.972656 -1.394531 -1.019531 -2.3125 -1.0625 C -3.238281 -1.113281 -3.910156 -1.140625 -4.328125 -1.140625 C -4.753906 -1.140625 -5.085938 -1.070312 -5.328125 -0.9375 C -5.566406 -0.800781 -5.703125 -0.582031 -5.734375 -0.28125 C -5.742188 -0.207031 -5.785156 -0.171875 -5.859375 -0.171875 C -5.890625 -0.171875 -5.921875 -0.1875 -5.953125 -0.21875 C -5.984375 -0.257812 -6 -0.3125 -6 -0.375 L -6 -0.703125 L -6.015625 -1.125 C -6.015625 -1.175781 -6 -1.234375 -5.96875 -1.296875 C -5.9375 -1.367188 -5.90625 -1.410156 -5.875 -1.421875 C -5.851562 -1.429688 -5.8125 -1.460938 -5.75 -1.515625 C -5.695312 -1.566406 -5.617188 -1.632812 -5.515625 -1.71875 C -5.421875 -1.800781 -5.332031 -1.875 -5.25 -1.9375 C -4.238281 -2.707031 -3.03125 -3.738281 -1.625 -5.03125 C -1.582031 -5.0625 -1.535156 -5.097656 -1.484375 -5.140625 C -1.429688 -5.191406 -1.390625 -5.226562 -1.359375 -5.25 C -1.335938 -5.269531 -1.316406 -5.289062 -1.296875 -5.3125 C -1.253906 -5.351562 -1.234375 -5.382812 -1.234375 -5.40625 C -1.234375 -5.46875 -1.410156 -5.5 -1.765625 -5.5 L -2.75 -5.5 L -4.5 -5.484375 L -4.5625 -5.484375 C -5.082031 -5.484375 -5.410156 -5.390625 -5.546875 -5.203125 C -5.597656 -5.140625 -5.628906 -5.082031 -5.640625 -5.03125 C -5.660156 -4.988281 -5.675781 -4.925781 -5.6875 -4.84375 C -5.738281 -4.613281 -5.800781 -4.5 -5.875 -4.5 C -5.957031 -4.5 -6 -4.550781 -6 -4.65625 L -6 -5.46875 C -6 -5.46875 -6.003906 -5.722656 -6.015625 -6.234375 C -6.015625 -6.328125 -6.003906 -6.390625 -5.984375 -6.421875 C -5.960938 -6.460938 -5.929688 -6.484375 -5.890625 -6.484375 C -5.859375 -6.484375 -5.828125 -6.46875 -5.796875 -6.4375 C -5.773438 -6.382812 -5.742188 -6.300781 -5.703125 -6.1875 C -5.597656 -6 -5.28125 -5.90625 -4.75 -5.90625 L -4.421875 -5.90625 L -0.21875 -5.8125 L -0.046875 -5.8125 C 0.078125 -5.8125 0.140625 -5.769531 0.140625 -5.6875 C 0.140625 -5.632812 0.117188 -5.59375 0.078125 -5.5625 C -2.097656 -3.675781 -3.390625 -2.550781 -3.796875 -2.1875 C -4.203125 -1.820312 -4.40625 -1.625 -4.40625 -1.59375 C -4.40625 -1.53125 -4.175781 -1.5 -3.71875 -1.5 C -3.257812 -1.5 -2.71875 -1.488281 -2.09375 -1.46875 C -1.476562 -1.445312 -1.144531 -1.4375 -1.09375 -1.4375 C -0.832031 -1.4375 -0.632812 -1.476562 -0.5 -1.5625 C -0.375 -1.65625 -0.300781 -1.75 -0.28125 -1.84375 C -0.257812 -1.945312 -0.238281 -2.039062 -0.21875 -2.125 C -0.195312 -2.21875 -0.15625 -2.265625 -0.09375 -2.265625 C -0.0390625 -2.265625 -0.0078125 -2.253906 0 -2.234375 C 0.0195312 -2.210938 0.03125 -2.175781 0.03125 -2.125 Z M 0.015625 -1.21875 "/></g></g></g><g fill="#000000" fill-opacity="1"><g transform="translate(212.255466, 109.084844)"><g><path d="M -0.75 -2.765625 L -2.484375 -2.78125 C -2.710938 -2.78125 -2.941406 -2.707031 -3.171875 -2.5625 C -3.390625 -2.425781 -3.660156 -2.25 -3.984375 -2.03125 C -4.304688 -1.8125 -4.59375 -1.613281 -4.84375 -1.4375 C -5.101562 -1.269531 -5.300781 -1.113281 -5.4375 -0.96875 C -5.582031 -0.832031 -5.664062 -0.722656 -5.6875 -0.640625 C -5.71875 -0.566406 -5.734375 -0.46875 -5.734375 -0.34375 C -5.734375 -0.226562 -5.765625 -0.171875 -5.828125 -0.171875 C -5.898438 -0.171875 -5.941406 -0.203125 -5.953125 -0.265625 C -5.972656 -0.328125 -5.984375 -0.472656 -5.984375 -0.703125 L -5.96875 -1.1875 L -5.96875 -1.90625 C -5.96875 -2.1875 -5.9375 -2.328125 -5.875 -2.328125 C -5.8125 -2.328125 -5.757812 -2.269531 -5.71875 -2.15625 C -5.675781 -2.039062 -5.625 -1.984375 -5.5625 -1.984375 C -5.507812 -1.984375 -5.4375 -2 -5.34375 -2.03125 C -5.257812 -2.070312 -5.1875 -2.109375 -5.125 -2.140625 C -5.070312 -2.179688 -4.988281 -2.238281 -4.875 -2.3125 C -4.769531 -2.382812 -4.632812 -2.46875 -4.46875 -2.5625 C -4.3125 -2.664062 -4.09375 -2.820312 -3.8125 -3.03125 C -3.539062 -3.238281 -3.40625 -3.359375 -3.40625 -3.390625 C -3.40625 -3.421875 -3.4375 -3.460938 -3.5 -3.515625 C -3.5625 -3.566406 -3.671875 -3.632812 -3.828125 -3.71875 C -3.984375 -3.8125 -4.085938 -3.878906 -4.140625 -3.921875 C -4.203125 -3.960938 -4.28125 -4.015625 -4.375 -4.078125 C -4.46875 -4.140625 -4.535156 -4.179688 -4.578125 -4.203125 C -4.617188 -4.234375 -4.679688 -4.273438 -4.765625 -4.328125 C -4.847656 -4.378906 -4.910156 -4.414062 -4.953125 -4.4375 C -4.992188 -4.457031 -5.046875 -4.484375 -5.109375 -4.515625 C -5.210938 -4.566406 -5.296875 -4.59375 -5.359375 -4.59375 C -5.566406 -4.59375 -5.6875 -4.460938 -5.71875 -4.203125 C -5.738281 -4.078125 -5.765625 -4.003906 -5.796875 -3.984375 C -5.828125 -3.972656 -5.851562 -3.96875 -5.875 -3.96875 C -5.945312 -3.96875 -5.984375 -4.046875 -5.984375 -4.203125 L -5.96875 -4.5625 L -5.96875 -5.453125 C -5.96875 -5.734375 -5.925781 -5.875 -5.84375 -5.875 C -5.8125 -5.875 -5.785156 -5.851562 -5.765625 -5.8125 C -5.753906 -5.78125 -5.734375 -5.734375 -5.703125 -5.671875 C -5.679688 -5.609375 -5.648438 -5.550781 -5.609375 -5.5 C -5.429688 -5.269531 -5 -4.929688 -4.3125 -4.484375 C -3.632812 -4.035156 -3.25 -3.769531 -3.15625 -3.6875 C -3.0625 -3.613281 -2.945312 -3.566406 -2.8125 -3.546875 C -2.675781 -3.523438 -2.441406 -3.515625 -2.109375 -3.515625 L -0.921875 -3.515625 C -0.734375 -3.515625 -0.585938 -3.546875 -0.484375 -3.609375 C -0.378906 -3.679688 -0.316406 -3.742188 -0.296875 -3.796875 C -0.273438 -3.859375 -0.265625 -3.914062 -0.265625 -3.96875 L -0.25 -4.140625 C -0.25 -4.179688 -0.234375 -4.210938 -0.203125 -4.234375 C -0.179688 -4.253906 -0.148438 -4.265625 -0.109375 -4.265625 C -0.0664062 -4.265625 -0.0351562 -4.25 -0.015625 -4.21875 C -0.00390625 -4.195312 0 -4.144531 0 -4.0625 L -0.015625 -3.21875 L 0.03125 -2.28125 C 0.03125 -2.125 0.00390625 -2.046875 -0.046875 -2.046875 C -0.109375 -2.046875 -0.148438 -2.0625 -0.171875 -2.09375 C -0.191406 -2.125 -0.203125 -2.175781 -0.203125 -2.25 C -0.210938 -2.320312 -0.222656 -2.375 -0.234375 -2.40625 C -0.304688 -2.644531 -0.476562 -2.765625 -0.75 -2.765625 Z M -0.75 -2.765625 "/></g></g></g></svg>