<svg xmlns="http://www.w3.org/2000/svg" xmlns:xlink="http://www.w3.org/1999/xlink" width="150" zoomAndPan="magnify" viewBox="0 0 112.5 38.999999" height="52" preserveAspectRatio="xMidYMid meet" version="1.0"><defs><g/><clipPath id="7d57094459"><path d="M 81.414062 3.570312 L 112.003906 3.570312 L 112.003906 35.832031 L 81.414062 35.832031 Z M 81.414062 3.570312 " clip-rule="nonzero"/></clipPath><clipPath id="14fc018755"><path d="M 96.707031 3.570312 C 88.261719 3.570312 81.414062 10.773438 81.414062 19.664062 C 81.414062 28.550781 88.261719 35.757812 96.707031 35.757812 C 105.15625 35.757812 112.003906 28.550781 112.003906 19.664062 C 112.003906 10.773438 105.15625 3.570312 96.707031 3.570312 Z M 96.707031 3.570312 " clip-rule="nonzero"/></clipPath></defs><g clip-path="url(#7d57094459)"><g clip-path="url(#14fc018755)"><path fill="#ffffff" d="M 81.414062 3.570312 L 112.003906 3.570312 L 112.003906 35.710938 L 81.414062 35.710938 Z M 81.414062 3.570312 " fill-opacity="1" fill-rule="nonzero"/></g></g><g fill="#000000" fill-opacity="1"><g transform="translate(4.273948, 27.654217)"><g><path d="M 7.421875 -17.1875 C 6.816406 -17.15625 6.378906 -17.085938 6.109375 -16.984375 C 5.835938 -16.890625 5.648438 -16.695312 5.546875 -16.40625 C 5.441406 -16.125 5.390625 -15.671875 5.390625 -15.046875 L 5.390625 -2.640625 C 5.390625 -2.015625 5.441406 -1.554688 5.546875 -1.265625 C 5.648438 -0.984375 5.835938 -0.796875 6.109375 -0.703125 C 6.378906 -0.617188 6.816406 -0.578125 7.421875 -0.578125 L 9.25 -0.578125 C 10.28125 -0.578125 11.066406 -0.722656 11.609375 -1.015625 C 12.148438 -1.304688 12.546875 -1.773438 12.796875 -2.421875 C 13.046875 -3.066406 13.226562 -4.007812 13.34375 -5.25 L 13.921875 -5.25 C 13.867188 -4.726562 13.84375 -4.046875 13.84375 -3.203125 C 13.84375 -2.253906 13.898438 -1.1875 14.015625 0 C 12.878906 -0.0507812 10.972656 -0.078125 8.296875 -0.078125 C 5.097656 -0.078125 2.679688 -0.0507812 1.046875 0 L 1.046875 -0.5 C 1.648438 -0.53125 2.085938 -0.59375 2.359375 -0.6875 C 2.628906 -0.789062 2.816406 -0.984375 2.921875 -1.265625 C 3.023438 -1.554688 3.078125 -2.015625 3.078125 -2.640625 L 3.078125 -15.046875 C 3.078125 -15.671875 3.023438 -16.125 2.921875 -16.40625 C 2.816406 -16.695312 2.628906 -16.890625 2.359375 -16.984375 C 2.085938 -17.085938 1.648438 -17.15625 1.046875 -17.1875 L 1.046875 -17.6875 C 1.742188 -17.632812 2.8125 -17.609375 4.25 -17.609375 C 5.582031 -17.609375 6.640625 -17.632812 7.421875 -17.6875 Z M 7.421875 -17.1875 "/></g></g></g><g fill="#000000" fill-opacity="1"><g transform="translate(18.957041, 27.654217)"><g><path d="M 7.421875 -17.1875 C 6.816406 -17.15625 6.378906 -17.085938 6.109375 -16.984375 C 5.835938 -16.890625 5.648438 -16.695312 5.546875 -16.40625 C 5.441406 -16.125 5.390625 -15.671875 5.390625 -15.046875 L 5.390625 -2.640625 C 5.390625 -2.015625 5.441406 -1.554688 5.546875 -1.265625 C 5.648438 -0.984375 5.835938 -0.789062 6.109375 -0.6875 C 6.378906 -0.59375 6.816406 -0.53125 7.421875 -0.5 L 7.421875 0 C 6.648438 -0.0507812 5.59375 -0.078125 4.25 -0.078125 C 2.8125 -0.078125 1.742188 -0.0507812 1.046875 0 L 1.046875 -0.5 C 1.648438 -0.53125 2.085938 -0.59375 2.359375 -0.6875 C 2.628906 -0.789062 2.816406 -0.984375 2.921875 -1.265625 C 3.023438 -1.554688 3.078125 -2.015625 3.078125 -2.640625 L 3.078125 -15.046875 C 3.078125 -15.671875 3.023438 -16.125 2.921875 -16.40625 C 2.816406 -16.695312 2.628906 -16.890625 2.359375 -16.984375 C 2.085938 -17.085938 1.648438 -17.15625 1.046875 -17.1875 L 1.046875 -17.6875 C 1.742188 -17.632812 2.8125 -17.609375 4.25 -17.609375 C 5.582031 -17.609375 6.640625 -17.632812 7.421875 -17.6875 Z M 7.421875 -17.1875 "/></g></g></g><g fill="#000000" fill-opacity="1"><g transform="translate(27.422293, 27.654217)"><g><path d="M 13.515625 -17.6875 C 13.398438 -16.507812 13.34375 -15.441406 13.34375 -14.484375 C 13.34375 -13.648438 13.367188 -12.96875 13.421875 -12.4375 L 12.84375 -12.4375 C 12.707031 -13.71875 12.539062 -14.671875 12.34375 -15.296875 C 12.144531 -15.921875 11.796875 -16.378906 11.296875 -16.671875 C 10.796875 -16.960938 10.03125 -17.109375 9 -17.109375 L 7.421875 -17.109375 C 6.816406 -17.109375 6.378906 -17.0625 6.109375 -16.96875 C 5.835938 -16.882812 5.648438 -16.695312 5.546875 -16.40625 C 5.441406 -16.125 5.390625 -15.671875 5.390625 -15.046875 L 5.390625 -8.890625 L 7.21875 -8.890625 C 7.800781 -8.890625 8.25 -9.023438 8.5625 -9.296875 C 8.882812 -9.578125 9.097656 -9.90625 9.203125 -10.28125 C 9.316406 -10.65625 9.40625 -11.125 9.46875 -11.6875 L 9.546875 -12.1875 L 10.125 -12.1875 C 10.070312 -11.488281 10.046875 -10.707031 10.046875 -9.84375 L 10.046875 -8.640625 C 10.046875 -7.796875 10.09375 -6.613281 10.1875 -5.09375 L 9.625 -5.09375 C 9.601562 -5.207031 9.550781 -5.609375 9.46875 -6.296875 C 9.382812 -6.992188 9.15625 -7.515625 8.78125 -7.859375 C 8.40625 -8.210938 7.882812 -8.390625 7.21875 -8.390625 L 5.390625 -8.390625 L 5.390625 -2.640625 C 5.390625 -2.015625 5.457031 -1.554688 5.59375 -1.265625 C 5.726562 -0.984375 5.960938 -0.789062 6.296875 -0.6875 C 6.628906 -0.59375 7.171875 -0.53125 7.921875 -0.5 L 7.921875 0 C 7.054688 -0.0507812 5.832031 -0.078125 4.25 -0.078125 C 2.8125 -0.078125 1.742188 -0.0507812 1.046875 0 L 1.046875 -0.5 C 1.648438 -0.53125 2.085938 -0.59375 2.359375 -0.6875 C 2.628906 -0.789062 2.816406 -0.984375 2.921875 -1.265625 C 3.023438 -1.554688 3.078125 -2.015625 3.078125 -2.640625 L 3.078125 -15.046875 C 3.078125 -15.671875 3.023438 -16.125 2.921875 -16.40625 C 2.816406 -16.695312 2.628906 -16.890625 2.359375 -16.984375 C 2.085938 -17.085938 1.648438 -17.15625 1.046875 -17.1875 L 1.046875 -17.6875 C 2.679688 -17.632812 5.097656 -17.609375 8.296875 -17.609375 C 10.742188 -17.609375 12.484375 -17.632812 13.515625 -17.6875 Z M 13.515625 -17.6875 "/></g></g></g><g fill="#000000" fill-opacity="1"><g transform="translate(41.630932, 27.654217)"><g><path d="M 13.84375 -3.203125 C 13.84375 -2.253906 13.898438 -1.1875 14.015625 0 C 12.878906 -0.0507812 10.972656 -0.078125 8.296875 -0.078125 C 5.097656 -0.078125 2.679688 -0.0507812 1.046875 0 L 1.046875 -0.5 C 1.648438 -0.53125 2.085938 -0.59375 2.359375 -0.6875 C 2.628906 -0.789062 2.816406 -0.984375 2.921875 -1.265625 C 3.023438 -1.554688 3.078125 -2.015625 3.078125 -2.640625 L 3.078125 -15.046875 C 3.078125 -15.671875 3.023438 -16.125 2.921875 -16.40625 C 2.816406 -16.695312 2.628906 -16.890625 2.359375 -16.984375 C 2.085938 -17.085938 1.648438 -17.15625 1.046875 -17.1875 L 1.046875 -17.6875 C 2.679688 -17.632812 5.097656 -17.609375 8.296875 -17.609375 C 10.742188 -17.609375 12.484375 -17.632812 13.515625 -17.6875 C 13.398438 -16.59375 13.34375 -15.609375 13.34375 -14.734375 C 13.34375 -14.085938 13.367188 -13.570312 13.421875 -13.1875 L 12.84375 -13.1875 C 12.726562 -14.269531 12.578125 -15.070312 12.390625 -15.59375 C 12.210938 -16.125 11.90625 -16.507812 11.46875 -16.75 C 11.03125 -16.988281 10.375 -17.109375 9.5 -17.109375 L 7.421875 -17.109375 C 6.816406 -17.109375 6.378906 -17.0625 6.109375 -16.96875 C 5.835938 -16.882812 5.648438 -16.695312 5.546875 -16.40625 C 5.441406 -16.125 5.390625 -15.671875 5.390625 -15.046875 L 5.390625 -9.140625 L 7.046875 -9.140625 C 7.628906 -9.140625 8.078125 -9.273438 8.390625 -9.546875 C 8.710938 -9.828125 8.925781 -10.15625 9.03125 -10.53125 C 9.132812 -10.90625 9.222656 -11.375 9.296875 -11.9375 L 9.375 -12.4375 L 9.9375 -12.4375 C 9.894531 -11.738281 9.875 -10.957031 9.875 -10.09375 L 9.875 -8.890625 C 9.875 -8.046875 9.921875 -6.863281 10.015625 -5.34375 L 9.4375 -5.34375 C 9.425781 -5.457031 9.378906 -5.859375 9.296875 -6.546875 C 9.210938 -7.242188 8.984375 -7.765625 8.609375 -8.109375 C 8.234375 -8.460938 7.710938 -8.640625 7.046875 -8.640625 L 5.390625 -8.640625 L 5.390625 -2.640625 C 5.390625 -2.015625 5.441406 -1.554688 5.546875 -1.265625 C 5.648438 -0.984375 5.835938 -0.796875 6.109375 -0.703125 C 6.378906 -0.617188 6.816406 -0.578125 7.421875 -0.578125 L 9.25 -0.578125 C 10.28125 -0.578125 11.066406 -0.710938 11.609375 -0.984375 C 12.148438 -1.265625 12.546875 -1.707031 12.796875 -2.3125 C 13.046875 -2.914062 13.226562 -3.8125 13.34375 -5 L 13.921875 -5 C 13.867188 -4.550781 13.84375 -3.953125 13.84375 -3.203125 Z M 13.84375 -3.203125 "/></g></g></g><g fill="#000000" fill-opacity="1"><g transform="translate(56.838423, 27.654217)"><g><path d="M 7.421875 -17.1875 C 6.816406 -17.15625 6.378906 -17.085938 6.109375 -16.984375 C 5.835938 -16.890625 5.648438 -16.695312 5.546875 -16.40625 C 5.441406 -16.125 5.390625 -15.671875 5.390625 -15.046875 L 5.390625 -2.640625 C 5.390625 -2.015625 5.441406 -1.554688 5.546875 -1.265625 C 5.648438 -0.984375 5.835938 -0.796875 6.109375 -0.703125 C 6.378906 -0.617188 6.816406 -0.578125 7.421875 -0.578125 L 9.25 -0.578125 C 10.28125 -0.578125 11.066406 -0.722656 11.609375 -1.015625 C 12.148438 -1.304688 12.546875 -1.773438 12.796875 -2.421875 C 13.046875 -3.066406 13.226562 -4.007812 13.34375 -5.25 L 13.921875 -5.25 C 13.867188 -4.726562 13.84375 -4.046875 13.84375 -3.203125 C 13.84375 -2.253906 13.898438 -1.1875 14.015625 0 C 12.878906 -0.0507812 10.972656 -0.078125 8.296875 -0.078125 C 5.097656 -0.078125 2.679688 -0.0507812 1.046875 0 L 1.046875 -0.5 C 1.648438 -0.53125 2.085938 -0.59375 2.359375 -0.6875 C 2.628906 -0.789062 2.816406 -0.984375 2.921875 -1.265625 C 3.023438 -1.554688 3.078125 -2.015625 3.078125 -2.640625 L 3.078125 -15.046875 C 3.078125 -15.671875 3.023438 -16.125 2.921875 -16.40625 C 2.816406 -16.695312 2.628906 -16.890625 2.359375 -16.984375 C 2.085938 -17.085938 1.648438 -17.15625 1.046875 -17.1875 L 1.046875 -17.6875 C 1.742188 -17.632812 2.8125 -17.609375 4.25 -17.609375 C 5.582031 -17.609375 6.640625 -17.632812 7.421875 -17.6875 Z M 7.421875 -17.1875 "/></g></g></g><g fill="#000000" fill-opacity="1"><g transform="translate(71.521516, 27.654217)"><g><path d="M 6.84375 -13.21875 C 8.539062 -13.21875 9.910156 -12.65625 10.953125 -11.53125 C 11.992188 -10.40625 12.515625 -8.703125 12.515625 -6.421875 C 12.515625 -4.140625 11.992188 -2.441406 10.953125 -1.328125 C 9.910156 -0.210938 8.539062 0.34375 6.84375 0.34375 C 5.144531 0.34375 3.773438 -0.210938 2.734375 -1.328125 C 1.691406 -2.441406 1.171875 -4.140625 1.171875 -6.421875 C 1.171875 -8.703125 1.691406 -10.40625 2.734375 -11.53125 C 3.773438 -12.65625 5.144531 -13.21875 6.84375 -13.21875 Z M 6.84375 -12.71875 C 5.84375 -12.71875 5.050781 -12.203125 4.46875 -11.171875 C 3.882812 -10.148438 3.59375 -8.566406 3.59375 -6.421875 C 3.59375 -4.273438 3.882812 -2.691406 4.46875 -1.671875 C 5.050781 -0.660156 5.84375 -0.15625 6.84375 -0.15625 C 7.84375 -0.15625 8.632812 -0.660156 9.21875 -1.671875 C 9.800781 -2.691406 10.09375 -4.273438 10.09375 -6.421875 C 10.09375 -8.566406 9.800781 -10.148438 9.21875 -11.171875 C 8.632812 -12.203125 7.84375 -12.71875 6.84375 -12.71875 Z M 6.84375 -12.71875 "/></g></g></g><g fill="#000000" fill-opacity="1"><g transform="translate(85.205756, 27.654217)"><g><path d="M 11.765625 -10.625 C 11.460938 -10.625 11.207031 -10.722656 11 -10.921875 C 10.789062 -11.117188 10.6875 -11.410156 10.6875 -11.796875 C 10.6875 -12.128906 10.769531 -12.507812 10.9375 -12.9375 C 10.507812 -12.757812 10.171875 -12.554688 9.921875 -12.328125 C 9.671875 -12.109375 9.445312 -11.832031 9.25 -11.5 C 9.625 -10.914062 9.8125 -10.171875 9.8125 -9.265625 C 9.8125 -7.953125 9.410156 -6.96875 8.609375 -6.3125 C 7.816406 -5.65625 6.765625 -5.328125 5.453125 -5.328125 L 5.421875 -5.328125 C 4.867188 -5.003906 4.453125 -4.707031 4.171875 -4.4375 C 3.890625 -4.175781 3.75 -3.878906 3.75 -3.546875 C 3.75 -3.015625 4.148438 -2.75 4.953125 -2.75 L 8.0625 -2.75 C 9.195312 -2.75 10.132812 -2.503906 10.875 -2.015625 C 11.625 -1.523438 12 -0.785156 12 0.203125 C 12 1.003906 11.738281 1.742188 11.21875 2.421875 C 10.695312 3.109375 9.9375 3.660156 8.9375 4.078125 C 7.945312 4.492188 6.742188 4.703125 5.328125 4.703125 C 3.867188 4.703125 2.648438 4.476562 1.671875 4.03125 C 0.703125 3.59375 0.21875 2.941406 0.21875 2.078125 C 0.21875 1.503906 0.445312 1.007812 0.90625 0.59375 C 1.363281 0.175781 2.003906 -0.144531 2.828125 -0.375 L 2.96875 0.03125 C 2.601562 0.144531 2.3125 0.375 2.09375 0.71875 C 1.882812 1.070312 1.78125 1.46875 1.78125 1.90625 C 1.78125 2.664062 2.125 3.25 2.8125 3.65625 C 3.5 4.0625 4.425781 4.265625 5.59375 4.265625 C 6.875 4.265625 7.972656 4.019531 8.890625 3.53125 C 9.804688 3.039062 10.265625 2.28125 10.265625 1.25 C 10.265625 0.644531 10.050781 0.175781 9.625 -0.15625 C 9.207031 -0.488281 8.457031 -0.65625 7.375 -0.65625 L 5.515625 -0.65625 C 4.535156 -0.65625 3.75 -0.78125 3.15625 -1.03125 C 2.570312 -1.28125 2.28125 -1.773438 2.28125 -2.515625 C 2.28125 -3.035156 2.460938 -3.53125 2.828125 -4 C 3.203125 -4.46875 3.828125 -4.925781 4.703125 -5.375 C 3.597656 -5.488281 2.71875 -5.867188 2.0625 -6.515625 C 1.40625 -7.171875 1.078125 -8.085938 1.078125 -9.265625 C 1.078125 -10.585938 1.472656 -11.578125 2.265625 -12.234375 C 3.066406 -12.890625 4.128906 -13.21875 5.453125 -13.21875 C 7.015625 -13.21875 8.171875 -12.785156 8.921875 -11.921875 C 9.234375 -12.367188 9.628906 -12.738281 10.109375 -13.03125 C 10.597656 -13.320312 11.082031 -13.46875 11.5625 -13.46875 C 12 -13.46875 12.347656 -13.34375 12.609375 -13.09375 C 12.878906 -12.84375 13.015625 -12.484375 13.015625 -12.015625 C 13.015625 -11.546875 12.882812 -11.195312 12.625 -10.96875 C 12.375 -10.738281 12.085938 -10.625 11.765625 -10.625 Z M 5.453125 -5.765625 C 6.117188 -5.765625 6.617188 -6.023438 6.953125 -6.546875 C 7.296875 -7.078125 7.46875 -7.984375 7.46875 -9.265625 C 7.46875 -10.546875 7.296875 -11.445312 6.953125 -11.96875 C 6.617188 -12.5 6.117188 -12.765625 5.453125 -12.765625 C 4.785156 -12.765625 4.28125 -12.5 3.9375 -11.96875 C 3.59375 -11.445312 3.421875 -10.546875 3.421875 -9.265625 C 3.421875 -7.984375 3.59375 -7.078125 3.9375 -6.546875 C 4.28125 -6.023438 4.785156 -5.765625 5.453125 -5.765625 Z M 5.453125 -5.765625 "/></g></g></g><g fill="#000000" fill-opacity="1"><g transform="translate(105.467898, 28.672175)"><g><path d="M -0.640625 -0.890625 L -0.296875 -0.890625 C 0.0351562 -0.890625 0.304688 -0.796875 0.515625 -0.609375 C 0.734375 -0.429688 0.84375 -0.222656 0.84375 0.015625 C 0.84375 0.140625 0.785156 0.203125 0.671875 0.203125 C 0.628906 0.203125 0.578125 0.179688 0.515625 0.140625 C 0.460938 0.109375 0.4375 0.0820312 0.4375 0.0625 C 0.4375 0.0390625 0.457031 0.0078125 0.5 -0.03125 C 0.550781 -0.0703125 0.578125 -0.125 0.578125 -0.1875 C 0.578125 -0.351562 0.460938 -0.457031 0.234375 -0.5 C 0.0351562 -0.53125 -0.109375 -0.546875 -0.203125 -0.546875 L -0.828125 -0.546875 C -0.890625 -0.546875 -0.941406 -0.546875 -0.984375 -0.546875 C -1.023438 -0.546875 -1.070312 -0.546875 -1.125 -0.546875 C -1.269531 -0.535156 -1.550781 -0.53125 -1.96875 -0.53125 C -2.394531 -0.53125 -2.648438 -0.523438 -2.734375 -0.515625 C -2.816406 -0.503906 -2.875 -0.460938 -2.90625 -0.390625 C -2.945312 -0.328125 -2.96875 -0.257812 -2.96875 -0.1875 C -2.976562 -0.125 -3.003906 -0.09375 -3.046875 -0.09375 C -3.097656 -0.09375 -3.125 -0.132812 -3.125 -0.21875 C -3.125 -0.25 -3.117188 -0.316406 -3.109375 -0.421875 C -3.109375 -0.523438 -3.109375 -0.625 -3.109375 -0.71875 C -3.109375 -0.71875 -3.109375 -0.832031 -3.109375 -1.0625 C -3.109375 -1.144531 -3.085938 -1.1875 -3.046875 -1.1875 C -3.023438 -1.1875 -2.984375 -1.117188 -2.921875 -0.984375 C -2.898438 -0.921875 -2.800781 -0.890625 -2.625 -0.890625 Z M -0.640625 -0.890625 "/></g></g></g><g fill="#000000" fill-opacity="1"><g transform="translate(105.467898, 27.398055)"><g><path d="M -1.5625 -0.515625 L -2.3125 -0.515625 C -2.394531 -0.515625 -2.53125 -0.515625 -2.71875 -0.515625 C -2.800781 -0.515625 -2.863281 -0.476562 -2.90625 -0.40625 C -2.957031 -0.332031 -2.984375 -0.25 -2.984375 -0.15625 C -2.984375 -0.113281 -3.007812 -0.09375 -3.0625 -0.09375 C -3.101562 -0.09375 -3.125 -0.128906 -3.125 -0.203125 L -3.125 -0.328125 L -3.09375 -1.40625 L -3.125 -2.28125 C -3.125 -2.332031 -3.085938 -2.359375 -3.015625 -2.359375 C -2.992188 -2.359375 -2.9375 -2.347656 -2.84375 -2.328125 C -2.75 -2.316406 -2.671875 -2.3125 -2.609375 -2.3125 C -2.515625 -2.3125 -2.46875 -2.285156 -2.46875 -2.234375 C -2.46875 -2.191406 -2.503906 -2.171875 -2.578125 -2.171875 C -2.648438 -2.171875 -2.71875 -2.144531 -2.78125 -2.09375 C -2.84375 -2.050781 -2.875 -1.992188 -2.875 -1.921875 C -2.894531 -1.648438 -2.90625 -1.445312 -2.90625 -1.3125 L -2.90625 -1.1875 C -2.90625 -1.039062 -2.894531 -0.957031 -2.875 -0.9375 C -2.84375 -0.882812 -2.519531 -0.859375 -1.90625 -0.859375 C -1.757812 -0.859375 -1.6875 -0.890625 -1.6875 -0.953125 L -1.6875 -1.375 C -1.6875 -1.550781 -1.691406 -1.671875 -1.703125 -1.734375 C -1.734375 -1.878906 -1.8125 -1.960938 -1.9375 -1.984375 C -1.976562 -1.992188 -2 -2.015625 -2 -2.046875 C -2 -2.078125 -1.992188 -2.09375 -1.984375 -2.09375 C -1.984375 -2.101562 -1.96875 -2.109375 -1.9375 -2.109375 L -1.46875 -2.078125 L -1.203125 -2.078125 C -1.128906 -2.078125 -1.09375 -2.070312 -1.09375 -2.0625 C -1.09375 -2.007812 -1.128906 -1.972656 -1.203125 -1.953125 C -1.328125 -1.910156 -1.398438 -1.875 -1.421875 -1.84375 C -1.460938 -1.78125 -1.484375 -1.675781 -1.484375 -1.53125 L -1.484375 -1.046875 C -1.484375 -0.921875 -1.457031 -0.859375 -1.40625 -0.859375 L -0.59375 -0.859375 C -0.382812 -0.859375 -0.265625 -0.890625 -0.234375 -0.953125 C -0.210938 -1.023438 -0.203125 -1.085938 -0.203125 -1.140625 C -0.203125 -1.578125 -0.238281 -1.894531 -0.3125 -2.09375 C -0.375 -2.269531 -0.441406 -2.378906 -0.515625 -2.421875 C -0.585938 -2.453125 -0.625 -2.484375 -0.625 -2.515625 C -0.625 -2.546875 -0.597656 -2.5625 -0.546875 -2.5625 C -0.421875 -2.5625 -0.296875 -2.5 -0.171875 -2.375 C -0.046875 -2.25 0.015625 -2.140625 0.015625 -2.046875 C 0.015625 -1.835938 0.0078125 -1.597656 0 -1.328125 C -0.0078125 -1.066406 -0.015625 -0.90625 -0.015625 -0.84375 L 0.015625 -0.234375 C 0.015625 -0.179688 0 -0.15625 -0.03125 -0.15625 L -0.078125 -0.15625 C -0.0976562 -0.15625 -0.109375 -0.164062 -0.109375 -0.1875 C -0.117188 -0.21875 -0.140625 -0.265625 -0.171875 -0.328125 C -0.203125 -0.398438 -0.265625 -0.445312 -0.359375 -0.46875 C -0.460938 -0.5 -0.679688 -0.515625 -1.015625 -0.515625 Z M -1.5625 -0.515625 "/></g></g></g><g fill="#000000" fill-opacity="1"><g transform="translate(105.467898, 24.744377)"><g><path d="M 0.015625 -0.625 L 0.015625 -0.265625 C 0.015625 -0.191406 -0.00390625 -0.15625 -0.046875 -0.15625 C -0.078125 -0.15625 -0.09375 -0.175781 -0.09375 -0.21875 C -0.101562 -0.257812 -0.128906 -0.304688 -0.171875 -0.359375 C -0.210938 -0.410156 -0.273438 -0.445312 -0.359375 -0.46875 C -0.441406 -0.5 -0.722656 -0.523438 -1.203125 -0.546875 C -1.679688 -0.578125 -2.023438 -0.59375 -2.234375 -0.59375 C -2.453125 -0.59375 -2.625 -0.554688 -2.75 -0.484375 C -2.875 -0.410156 -2.945312 -0.296875 -2.96875 -0.140625 C -2.96875 -0.109375 -2.988281 -0.09375 -3.03125 -0.09375 C -3.050781 -0.09375 -3.066406 -0.101562 -3.078125 -0.125 C -3.097656 -0.144531 -3.109375 -0.171875 -3.109375 -0.203125 L -3.109375 -0.578125 C -3.109375 -0.609375 -3.097656 -0.640625 -3.078125 -0.671875 C -3.066406 -0.703125 -3.054688 -0.71875 -3.046875 -0.71875 C -3.035156 -0.726562 -3.015625 -0.75 -2.984375 -0.78125 C -2.953125 -0.8125 -2.910156 -0.847656 -2.859375 -0.890625 C -2.804688 -0.929688 -2.757812 -0.96875 -2.71875 -1 C -2.195312 -1.40625 -1.570312 -1.941406 -0.84375 -2.609375 C -0.820312 -2.617188 -0.796875 -2.632812 -0.765625 -2.65625 C -0.742188 -2.6875 -0.722656 -2.707031 -0.703125 -2.71875 C -0.691406 -2.726562 -0.679688 -2.738281 -0.671875 -2.75 C -0.648438 -2.769531 -0.640625 -2.785156 -0.640625 -2.796875 C -0.640625 -2.828125 -0.726562 -2.84375 -0.90625 -2.84375 L -2.359375 -2.84375 C -2.628906 -2.84375 -2.800781 -2.796875 -2.875 -2.703125 C -2.894531 -2.660156 -2.910156 -2.628906 -2.921875 -2.609375 C -2.929688 -2.585938 -2.941406 -2.550781 -2.953125 -2.5 C -2.972656 -2.382812 -3.003906 -2.328125 -3.046875 -2.328125 C -3.085938 -2.328125 -3.109375 -2.351562 -3.109375 -2.40625 L -3.109375 -2.828125 C -3.109375 -2.828125 -3.109375 -2.957031 -3.109375 -3.21875 C -3.109375 -3.269531 -3.101562 -3.304688 -3.09375 -3.328125 C -3.082031 -3.347656 -3.066406 -3.359375 -3.046875 -3.359375 C -3.023438 -3.359375 -3.007812 -3.347656 -3 -3.328125 C -2.988281 -3.304688 -2.972656 -3.265625 -2.953125 -3.203125 C -2.898438 -3.109375 -2.734375 -3.0625 -2.453125 -3.0625 L -2.28125 -3.0625 L -0.109375 -3 L -0.03125 -3 C 0.0390625 -3 0.078125 -2.984375 0.078125 -2.953125 C 0.078125 -2.921875 0.0664062 -2.894531 0.046875 -2.875 C -1.078125 -1.90625 -1.742188 -1.328125 -1.953125 -1.140625 C -2.171875 -0.953125 -2.28125 -0.847656 -2.28125 -0.828125 C -2.28125 -0.796875 -2.160156 -0.78125 -1.921875 -0.78125 C -1.679688 -0.78125 -1.398438 -0.769531 -1.078125 -0.75 C -0.765625 -0.738281 -0.59375 -0.734375 -0.5625 -0.734375 C -0.425781 -0.734375 -0.320312 -0.753906 -0.25 -0.796875 C -0.1875 -0.847656 -0.148438 -0.898438 -0.140625 -0.953125 C -0.128906 -1.003906 -0.117188 -1.050781 -0.109375 -1.09375 C -0.0976562 -1.144531 -0.078125 -1.171875 -0.046875 -1.171875 C -0.0234375 -1.171875 -0.0078125 -1.164062 0 -1.15625 C 0.0078125 -1.144531 0.015625 -1.128906 0.015625 -1.109375 Z M 0.015625 -0.625 "/></g></g></g><g fill="#000000" fill-opacity="1"><g transform="translate(105.467898, 21.238364)"><g><path d="M 0.015625 -0.625 L 0.015625 -0.265625 C 0.015625 -0.191406 -0.00390625 -0.15625 -0.046875 -0.15625 C -0.078125 -0.15625 -0.09375 -0.175781 -0.09375 -0.21875 C -0.101562 -0.257812 -0.128906 -0.304688 -0.171875 -0.359375 C -0.210938 -0.410156 -0.273438 -0.445312 -0.359375 -0.46875 C -0.441406 -0.5 -0.722656 -0.523438 -1.203125 -0.546875 C -1.679688 -0.578125 -2.023438 -0.59375 -2.234375 -0.59375 C -2.453125 -0.59375 -2.625 -0.554688 -2.75 -0.484375 C -2.875 -0.410156 -2.945312 -0.296875 -2.96875 -0.140625 C -2.96875 -0.109375 -2.988281 -0.09375 -3.03125 -0.09375 C -3.050781 -0.09375 -3.066406 -0.101562 -3.078125 -0.125 C -3.097656 -0.144531 -3.109375 -0.171875 -3.109375 -0.203125 L -3.109375 -0.578125 C -3.109375 -0.609375 -3.097656 -0.640625 -3.078125 -0.671875 C -3.066406 -0.703125 -3.054688 -0.71875 -3.046875 -0.71875 C -3.035156 -0.726562 -3.015625 -0.75 -2.984375 -0.78125 C -2.953125 -0.8125 -2.910156 -0.847656 -2.859375 -0.890625 C -2.804688 -0.929688 -2.757812 -0.96875 -2.71875 -1 C -2.195312 -1.40625 -1.570312 -1.941406 -0.84375 -2.609375 C -0.820312 -2.617188 -0.796875 -2.632812 -0.765625 -2.65625 C -0.742188 -2.6875 -0.722656 -2.707031 -0.703125 -2.71875 C -0.691406 -2.726562 -0.679688 -2.738281 -0.671875 -2.75 C -0.648438 -2.769531 -0.640625 -2.785156 -0.640625 -2.796875 C -0.640625 -2.828125 -0.726562 -2.84375 -0.90625 -2.84375 L -2.359375 -2.84375 C -2.628906 -2.84375 -2.800781 -2.796875 -2.875 -2.703125 C -2.894531 -2.660156 -2.910156 -2.628906 -2.921875 -2.609375 C -2.929688 -2.585938 -2.941406 -2.550781 -2.953125 -2.5 C -2.972656 -2.382812 -3.003906 -2.328125 -3.046875 -2.328125 C -3.085938 -2.328125 -3.109375 -2.351562 -3.109375 -2.40625 L -3.109375 -2.828125 C -3.109375 -2.828125 -3.109375 -2.957031 -3.109375 -3.21875 C -3.109375 -3.269531 -3.101562 -3.304688 -3.09375 -3.328125 C -3.082031 -3.347656 -3.066406 -3.359375 -3.046875 -3.359375 C -3.023438 -3.359375 -3.007812 -3.347656 -3 -3.328125 C -2.988281 -3.304688 -2.972656 -3.265625 -2.953125 -3.203125 C -2.898438 -3.109375 -2.734375 -3.0625 -2.453125 -3.0625 L -2.28125 -3.0625 L -0.109375 -3 L -0.03125 -3 C 0.0390625 -3 0.078125 -2.984375 0.078125 -2.953125 C 0.078125 -2.921875 0.0664062 -2.894531 0.046875 -2.875 C -1.078125 -1.90625 -1.742188 -1.328125 -1.953125 -1.140625 C -2.171875 -0.953125 -2.28125 -0.847656 -2.28125 -0.828125 C -2.28125 -0.796875 -2.160156 -0.78125 -1.921875 -0.78125 C -1.679688 -0.78125 -1.398438 -0.769531 -1.078125 -0.75 C -0.765625 -0.738281 -0.59375 -0.734375 -0.5625 -0.734375 C -0.425781 -0.734375 -0.320312 -0.753906 -0.25 -0.796875 C -0.1875 -0.847656 -0.148438 -0.898438 -0.140625 -0.953125 C -0.128906 -1.003906 -0.117188 -1.050781 -0.109375 -1.09375 C -0.0976562 -1.144531 -0.078125 -1.171875 -0.046875 -1.171875 C -0.0234375 -1.171875 -0.0078125 -1.164062 0 -1.15625 C 0.0078125 -1.144531 0.015625 -1.128906 0.015625 -1.109375 Z M 0.015625 -0.625 "/></g></g></g><g fill="#000000" fill-opacity="1"><g transform="translate(105.467898, 17.732351)"><g><path d="M -0.390625 -1.4375 L -1.28125 -1.4375 C -1.40625 -1.4375 -1.523438 -1.398438 -1.640625 -1.328125 C -1.753906 -1.253906 -1.894531 -1.160156 -2.0625 -1.046875 C -2.226562 -0.929688 -2.375 -0.828125 -2.5 -0.734375 C -2.632812 -0.648438 -2.738281 -0.570312 -2.8125 -0.5 C -2.882812 -0.425781 -2.925781 -0.367188 -2.9375 -0.328125 C -2.957031 -0.296875 -2.96875 -0.25 -2.96875 -0.1875 C -2.96875 -0.125 -2.984375 -0.09375 -3.015625 -0.09375 C -3.046875 -0.09375 -3.066406 -0.109375 -3.078125 -0.140625 C -3.085938 -0.171875 -3.09375 -0.242188 -3.09375 -0.359375 L -3.09375 -0.984375 C -3.09375 -1.128906 -3.070312 -1.203125 -3.03125 -1.203125 C -3 -1.203125 -2.972656 -1.171875 -2.953125 -1.109375 C -2.929688 -1.046875 -2.90625 -1.015625 -2.875 -1.015625 C -2.851562 -1.015625 -2.816406 -1.023438 -2.765625 -1.046875 C -2.722656 -1.066406 -2.6875 -1.085938 -2.65625 -1.109375 C -2.625 -1.128906 -2.582031 -1.15625 -2.53125 -1.1875 C -2.476562 -1.226562 -2.40625 -1.273438 -2.3125 -1.328125 C -2.226562 -1.378906 -2.113281 -1.457031 -1.96875 -1.5625 C -1.832031 -1.675781 -1.765625 -1.738281 -1.765625 -1.75 C -1.765625 -1.769531 -1.78125 -1.789062 -1.8125 -1.8125 C -1.84375 -1.84375 -1.894531 -1.878906 -1.96875 -1.921875 C -2.050781 -1.972656 -2.109375 -2.007812 -2.140625 -2.03125 C -2.171875 -2.050781 -2.210938 -2.078125 -2.265625 -2.109375 C -2.316406 -2.140625 -2.351562 -2.160156 -2.375 -2.171875 C -2.394531 -2.191406 -2.425781 -2.210938 -2.46875 -2.234375 C -2.507812 -2.265625 -2.539062 -2.285156 -2.5625 -2.296875 C -2.582031 -2.304688 -2.609375 -2.316406 -2.640625 -2.328125 C -2.691406 -2.359375 -2.738281 -2.375 -2.78125 -2.375 C -2.882812 -2.375 -2.941406 -2.304688 -2.953125 -2.171875 C -2.960938 -2.109375 -2.972656 -2.070312 -2.984375 -2.0625 C -3.003906 -2.0625 -3.023438 -2.0625 -3.046875 -2.0625 C -3.078125 -2.0625 -3.09375 -2.097656 -3.09375 -2.171875 L -3.09375 -2.828125 C -3.09375 -2.960938 -3.066406 -3.03125 -3.015625 -3.03125 C -3.003906 -3.03125 -2.992188 -3.019531 -2.984375 -3 C -2.984375 -2.988281 -2.972656 -2.96875 -2.953125 -2.9375 C -2.941406 -2.90625 -2.925781 -2.875 -2.90625 -2.84375 C -2.8125 -2.726562 -2.585938 -2.550781 -2.234375 -2.3125 C -1.878906 -2.082031 -1.675781 -1.945312 -1.625 -1.90625 C -1.582031 -1.875 -1.523438 -1.847656 -1.453125 -1.828125 C -1.378906 -1.816406 -1.257812 -1.8125 -1.09375 -1.8125 L -0.578125 -1.828125 L -0.484375 -1.828125 C -0.378906 -1.828125 -0.300781 -1.84375 -0.25 -1.875 C -0.195312 -1.90625 -0.164062 -1.9375 -0.15625 -1.96875 C -0.144531 -2 -0.140625 -2.03125 -0.140625 -2.0625 L -0.125 -2.140625 C -0.125 -2.160156 -0.117188 -2.175781 -0.109375 -2.1875 C -0.0976562 -2.195312 -0.0820312 -2.203125 -0.0625 -2.203125 C -0.0390625 -2.203125 -0.0234375 -2.195312 -0.015625 -2.1875 C -0.00390625 -2.175781 0 -2.148438 0 -2.109375 L 0 -1.671875 L 0.015625 -1.1875 C 0.015625 -1.101562 0 -1.0625 -0.03125 -1.0625 C -0.0625 -1.0625 -0.0820312 -1.066406 -0.09375 -1.078125 C -0.101562 -1.097656 -0.109375 -1.125 -0.109375 -1.15625 C -0.109375 -1.195312 -0.113281 -1.226562 -0.125 -1.25 C -0.164062 -1.375 -0.253906 -1.4375 -0.390625 -1.4375 Z M -0.390625 -1.4375 "/></g></g></g></svg>